<?xml version="1.0" encoding="utf-8"?>
<!-- Generator: Adobe Illustrator 27.2.0, SVG Export Plug-In . SVG Version: 6.00 Build 0)  -->
<svg version="1.1" id="Layer_1" xmlns="http://www.w3.org/2000/svg" xmlns:xlink="http://www.w3.org/1999/xlink" x="0px" y="0px"
	 viewBox="0 0 77.3 77.3" style="enable-background:new 0 0 77.3 77.3;" xml:space="preserve">
<style type="text/css">
	.st0{fill:#E02330;}
</style>
<g>
	<path class="st0" d="M38.7,0C17.3,0,0,17.3,0,38.7C0,60,17.3,77.3,38.7,77.3S77.3,60,77.3,38.7C77.3,17.3,60,0,38.7,0z M38.7,72.4
		c-18.6,0-33.7-15.1-33.7-33.7c0-18.6,15.1-33.7,33.7-33.7c18.6,0,33.7,15.1,33.7,33.7C72.4,57.3,57.3,72.4,38.7,72.4z"/>
	<path class="st0" d="M38.7,6.9C21.2,6.9,6.9,21.2,6.9,38.7s14.2,31.7,31.7,31.7c17.5,0,31.7-14.2,31.7-31.7S56.2,6.9,38.7,6.9z
		 M52.6,41.6c-0.3,1.8-1,3.4-2,4.8c-2.5,3.9-6.9,6.5-12,6.5c-4.3,0-8.1-1.9-10.7-4.9c-2.7-3.4-3.6-7.7-3.3-10.9
		c0.4-3.6,2.1-6.9,4.8-9.2c0.5-0.4,1-0.8,1.5-1.1c2.2-1.5,4.9-2.3,7.8-2.3c3.8,0,7.2,1.5,9.7,3.8l-3.5,3.7c0,0,0,0,0,0
		c-1.1-1-2.4-1.7-3.9-2c-1.8-0.5-3.6-0.3-5,0.3c-3.5,1.2-6,4.6-6,8.5c0,4.6,3.4,8.3,7.8,8.9c0.3,0.1,1.2,0.1,1.2,0.1
		c0.1,0,0.2,0,0.2,0c3.9-0.1,7.2-2.6,8.4-6.2h0c0,0,0,0,0,0c0,0,0,0,0,0c0,0-8.5,0-8.5,0v-4.6h13.8C52.8,38.4,52.8,40.1,52.6,41.6z"
		/>
</g>
</svg>
