<?xml version="1.0" encoding="utf-8"?>
<!-- Generator: Adobe Illustrator 27.2.0, SVG Export Plug-In . SVG Version: 6.00 Build 0)  -->
<svg version="1.1" id="Layer_1" xmlns="http://www.w3.org/2000/svg" xmlns:xlink="http://www.w3.org/1999/xlink" x="0px" y="0px"
	 viewBox="0 0 77.3 77.3" style="enable-background:new 0 0 77.3 77.3;" xml:space="preserve">
<style type="text/css">
	.st0{fill:#E02330;}
</style>
<g>
	<path class="st0" d="M38.7,0C17.3,0,0,17.3,0,38.7C0,60,17.3,77.3,38.7,77.3S77.3,60,77.3,38.7C77.3,17.3,60,0,38.7,0z M38.7,72.4
		c-18.6,0-33.7-15.1-33.7-33.7c0-18.6,15.1-33.7,33.7-33.7c18.6,0,33.7,15.1,33.7,33.7C72.4,57.3,57.3,72.4,38.7,72.4z"/>
	<path class="st0" d="M38.7,6.9C21.2,6.9,6.9,21.2,6.9,38.7s14.2,31.7,31.7,31.7c17.5,0,31.7-14.2,31.7-31.7S56.2,6.9,38.7,6.9z
		 M24.9,19.3c0.4-0.7,1.3-1,1.3-1l8.6-3.2c0.4-0.1,0.7-0.5,2,0.3c0.8,0.5,1,2.3,1,2.3l0.1,14.7c0,0-0.2,1.8-1.4,2.1
		c-1.1,0.3-2-0.6-2-0.6l-8.9-12.1C25.5,21.7,24.3,20.3,24.9,19.3z M20.4,44.3c-0.3-0.6-0.2-1.9-0.2-1.9l0.6-7.4c0-0.5,0.5-1,1-1.3
		c0.7-0.4,2,0.2,2,0.2l9.2,4.7c0,0,1.4,0.7,1.4,1.8c0,1.5-0.8,1.5-1.2,1.8l-10.7,2.4C22.4,44.6,20.8,45.2,20.4,44.3z M36.9,58.3
		c-0.7,0.2-1.5,0-1.5,0l-7.2-2.3c-0.5-0.2-0.9-0.6-1.1-1.3c-0.2-0.7,0.7-2,0.7-2l7.2-7.9c0,0,1.1-1,2-0.5c0.8,0.4,0.9,1.5,0.9,1.5
		l-0.2,10.7C37.7,56.6,37.9,58.1,36.9,58.3z M41.3,36.3l5.8-9.2c0,0,0.6-1.2,1.6-1.1c0.9,0.1,1.3,0.8,1.3,0.8l4.9,5.8
		c0,0,0.4,0.9,0.2,1.7c-0.2,0.8-1.6,1.3-1.6,1.3l-10.3,3c0,0-1.5,0.3-2-0.6C40.8,37.2,41.3,36.3,41.3,36.3z M54.9,48.3l-4.4,6.2
		c0,0-0.8,0.6-1.6,0.6c-0.8,0-1.7-1.2-1.7-1.2l-5.5-9.2c0,0-0.6-1.3,0.1-2.1c0.7-0.7,1.7-0.4,1.7-0.4l10.3,3.3c0,0,1.5,0.3,1.5,1.2
		C55.3,47.5,54.9,48.3,54.9,48.3z"/>
</g>
</svg>
