<?xml version="1.0" encoding="utf-8"?>
<!-- Generator: Adobe Illustrator 27.2.0, SVG Export Plug-In . SVG Version: 6.00 Build 0)  -->
<svg version="1.1" id="Layer_1" xmlns="http://www.w3.org/2000/svg" xmlns:xlink="http://www.w3.org/1999/xlink" x="0px" y="0px"
	 viewBox="0 0 77.3 77.3" style="enable-background:new 0 0 77.3 77.3;" xml:space="preserve">
<style type="text/css">
	.st0{fill:#E02330;}
</style>
<path class="st0" d="M38.7,0C17.3,0,0,17.3,0,38.7C0,60,17.3,77.3,38.7,77.3S77.3,60,77.3,38.7C77.3,17.3,60,0,38.7,0z M38.7,72.4
	c-18.6,0-33.7-15.1-33.7-33.7c0-18.6,15.1-33.7,33.7-33.7c18.6,0,33.7,15.1,33.7,33.7C72.4,57.3,57.3,72.4,38.7,72.4z"/>
<g>
	
		<ellipse transform="matrix(1.700053e-03 -1 1 1.700053e-03 -6.391060e-02 77.2525)" class="st0" cx="38.7" cy="38.7" rx="6.1" ry="6.1"/>
	<path class="st0" d="M52.9,27.9c-0.3-0.8-0.7-1.5-1.4-2.1c-0.6-0.6-1.2-1-2.1-1.4c-0.6-0.2-1.6-0.5-3.4-0.6
		c-1.9-0.1-2.5-0.1-7.4-0.1c-0.6,0-1.1,0-1.6,0l0,0c-3.4,0-4,0-5.7,0.1c-1.8,0.1-2.7,0.4-3.4,0.6c-0.8,0.3-1.5,0.7-2.1,1.4
		c-0.6,0.6-1,1.2-1.4,2.1c-0.2,0.6-0.5,1.6-0.6,3.4c-0.1,1.9-0.1,2.5-0.1,7.4c0,4.9,0,5.4,0.1,7.4c0.1,1.8,0.4,2.7,0.6,3.4
		c0.3,0.8,0.7,1.5,1.4,2.1c0.6,0.6,1.2,1,2.1,1.4c0.6,0.2,1.6,0.5,3.4,0.6c1.9,0.1,2.5,0.1,7.4,0.1c4.9,0,5.4,0,7.4-0.1
		c1.8-0.1,2.7-0.4,3.4-0.6c0.9-0.3,1.5-0.7,2.1-1.4c0.6-0.6,1-1.2,1.4-2.1c0.2-0.6,0.5-1.6,0.6-3.4c0.1-1.9,0.1-2.5,0.1-7.4
		c0-4.9,0-5.4-0.1-7.4C53.4,29.5,53.1,28.6,52.9,27.9z M38.7,48c-5.2,0-9.4-4.2-9.4-9.3c0-5.2,4.2-9.3,9.4-9.3c0,0,0,0,0,0h0
		c0,0,0,0,0,0c5.2,0,9.4,4.2,9.4,9.3C48,43.8,43.8,48,38.7,48z M48.4,31.1c-1.2,0-2.2-1-2.2-2.2c0-1.2,1-2.2,2.2-2.2v0
		c1.2,0,2.2,1,2.2,2.2C50.6,30.1,49.6,31.1,48.4,31.1z"/>
	<path class="st0" d="M38.7,6.9C21.2,6.9,6.9,21.2,6.9,38.7s14.2,31.7,31.7,31.7c17.5,0,31.7-14.2,31.7-31.7S56.2,6.9,38.7,6.9z
		 M56.8,46.2c-0.1,1.9-0.4,3.3-0.8,4.4c-0.5,1.2-1.1,2.2-2.1,3.2c-1,1-2,1.6-3.2,2.1c-1.2,0.5-2.5,0.8-4.4,0.8
		c-1.9,0.1-2.6,0.1-7.5,0.1c-4.9,0-5.6,0-7.5-0.1c-1.9-0.1-3.3-0.4-4.4-0.8c-1.2-0.5-2.2-1.1-3.2-2.1c-1-1-1.6-2-2.1-3.2
		c-0.5-1.2-0.8-2.5-0.8-4.4c-0.1-1.9-0.1-2.6-0.1-7.5c0-4.9,0-5.6,0.1-7.5c0.1-1.9,0.4-3.3,0.8-4.4c0.5-1.2,1.1-2.2,2.1-3.2
		c1-1,2-1.6,3.2-2.1c1.2-0.5,2.5-0.8,4.4-0.8c1.9-0.1,2.6-0.1,7.5-0.1c0,0,0,0,0,0h0c0,0,0,0,0,0c4.9,0,5.6,0,7.5,0.1
		c1.9,0.1,3.3,0.4,4.4,0.8c1.2,0.5,2.2,1.1,3.2,2.1c1,1,1.6,2,2.1,3.2c0.4,1.2,0.8,2.5,0.8,4.4c0.1,1.9,0.1,2.6,0.1,7.5
		S56.8,44.2,56.8,46.2z"/>
</g>
</svg>
