<?xml version="1.0" encoding="utf-8"?>
<!-- Generator: Adobe Illustrator 27.2.0, SVG Export Plug-In . SVG Version: 6.00 Build 0)  -->
<svg version="1.1" id="Layer_1" xmlns="http://www.w3.org/2000/svg" xmlns:xlink="http://www.w3.org/1999/xlink" x="0px" y="0px"
	 viewBox="0 0 77.3 77.3" style="enable-background:new 0 0 77.3 77.3;" xml:space="preserve">
<style type="text/css">
	.st0{fill:#E02330;}
	.st1{fill:#FFFFFF;}
</style>
<g>
	<path class="st0" d="M38.7,0C17.3,0,0,17.3,0,38.7C0,60,17.3,77.3,38.7,77.3S77.3,60,77.3,38.7C77.3,17.3,60,0,38.7,0z M38.7,72.4
		C20.1,72.4,5,57.3,5,38.7S20.1,5,38.7,5s33.7,15.1,33.7,33.7S57.3,72.4,38.7,72.4z"/>
	<path class="st0" d="M38.7,6.9C21.2,6.9,6.9,21.2,6.9,38.7s14.2,31.7,31.7,31.7s31.7-14.2,31.7-31.7S56.2,6.9,38.7,6.9z"/>
	<g>
		<path class="st1" d="M38.6,28.6c-5.6,0-10.1,4.5-10.1,10.1c0,5.6,4.5,10.1,10.1,10.1c5.6,0,10.1-4.5,10.1-10.1
			C48.7,33.1,44.2,28.6,38.6,28.6L38.6,28.6z M38.6,46.6c-4.4,0-7.9-3.6-7.9-7.9c0-4.4,3.6-7.9,7.9-7.9c4.4,0,7.9,3.6,7.9,7.9
			C46.5,43,43,46.6,38.6,46.6z"/>
		<path class="st1" d="M43.8,38.6c0,2.9-2.3,5.2-5.2,5.2c-2.9,0-5.2-2.3-5.2-5.2c0-2.9,2.3-5.2,5.2-5.2
			C41.5,33.5,43.8,35.8,43.8,38.6"/>
		<path class="st1" d="M58.3,40.4c0-0.1,0-0.3,0-0.4l0,0c0.1-1,0.1-2,0-3l1.1-0.2l-0.6-3.4l-1.1,0.2c-0.2-0.9-0.5-1.7-0.9-2.6
			l-0.1-0.7l0.8-0.4l-1.7-3l0,0l0,0l-0.9,0.5c-0.7-0.9-1.4-1.8-2.2-2.6l0.7-0.8l0,0l0,0L52,22.8l-1.3-1.1l0,0l0,0l-0.7,0.8
			c-0.5-0.3-0.9-0.6-1.4-0.9c-0.5-0.3-1-0.6-1.5-0.8l0.4-1l0,0l0,0l-1.6-0.6l-1.6-0.6l0,0l0,0l-0.4,1c-1.1-0.3-2.2-0.5-3.4-0.6
			l0-1.1h0v0l-1.7,0l-1.7,0v0h0l0,1.1c-1.2,0.1-2.3,0.3-3.4,0.6l-0.4-1l0,0l0,0l-1.7,0.6l-1.5,0.5l0,0l0,0l0.4,1
			c-0.5,0.2-1,0.5-1.5,0.8c-0.5,0.3-1,0.6-1.4,0.9l-0.7-0.8l0,0l0,0l-1.5,1.2l-1.2,1l0,0l0,0l0.7,0.8c-0.8,0.8-1.5,1.7-2.2,2.6
			l-0.9-0.5l0,0l0,0l-0.9,1.5l-0.9,1.5l0,0l0,0l0.9,0.5c-0.5,1-0.9,2.1-1.2,3.2l-1.1-0.2l0,0l0,0l-0.3,1.5l-0.3,1.9l0,0l0,0l1.1,0.2
			c0,0.6-0.1,1.1-0.1,1.7c0,0.6,0,1.1,0.1,1.7l-1.1,0.2l0,0l0,0l0.3,1.5l0.3,1.9l0,0l0,0l1.1-0.2c0,0,0,0,0,0
			c0.1,0.3,0.1,0.5,0.2,0.8c0,0,0,0,0,0.1c0.1,0.2,0.2,0.5,0.3,0.7c0,0,0,0.1,0,0.1c0.2,0.5,0.4,1,0.6,1.4l-0.9,0.5l0,0l0,0l0.9,1.5
			l0.9,1.5l0,0l0,0l0.9-0.5c0.7,0.9,1.4,1.8,2.2,2.6l-0.7,0.8l0,0l0,0l1.3,1.1l1.3,1.1l0,0l0,0l0.7-0.8c0.5,0.3,1,0.6,1.4,0.9
			c0.5,0.3,1,0.5,1.5,0.8l-0.4,1l0,0l0,0l1.6,0.6l1.6,0.6l0,0l0,0l0.4-1c1.1,0.3,2.2,0.5,3.4,0.6l0,1.1h0v0l1.6,0l1.9,0v0h0l0-1.1
			c0.5,0,1.1-0.1,1.6-0.2c0,0,0.1,0,0.1,0c0.3,0,0.5-0.1,0.8-0.2c0,0,0,0,0,0c0.3-0.1,0.6-0.1,0.8-0.2l0.4,1l0,0l0,0l1.6-0.6
			l1.7-0.6l0,0l0,0l-0.4-1c0.1-0.1,0.2-0.1,0.4-0.2l0,0c0.9-0.4,1.8-1,2.6-1.5l0.7,0.8l2.7-2.2l-0.7-0.8c0.6-0.6,1.2-1.3,1.8-2
			l0.6-0.5l0.8,0.4l1.2-2.1l0,0l0.5-0.9l0,0l0,0L56.5,47c0.5-1,0.9-2.1,1.2-3.2l1.1,0.2l0,0l0,0l0.3-1.7l0.3-1.7l0,0l0,0L58.3,40.4z
			 M49.6,38.9c-0.1,1.7-0.5,3.5-1.4,5c0,0.1-0.1,0.1-0.1,0.2c0,0.1-0.1,0.1-0.1,0.2c-0.9,1.5-2.2,2.8-3.7,3.7c0,0,0,0-0.1,0
			c-0.1,0.1-0.2,0.1-0.4,0.2c0,0-0.1,0-0.1,0.1c-0.1,0.1-0.2,0.1-0.3,0.2c-0.1,0-0.1,0.1-0.2,0.1c-0.1,0-0.2,0.1-0.3,0.1
			c-0.1,0-0.1,0.1-0.2,0.1c-0.1,0-0.2,0.1-0.3,0.1c-0.1,0-0.2,0.1-0.2,0.1c-0.1,0-0.2,0.1-0.3,0.1c-0.1,0-0.2,0.1-0.2,0.1
			c-0.1,0-0.2,0.1-0.3,0.1c-0.1,0-0.2,0-0.3,0.1c-0.1,0-0.2,0-0.3,0.1c-0.1,0-0.2,0-0.3,0.1c-0.1,0-0.2,0-0.2,0c-0.1,0-0.2,0-0.3,0
			c-0.1,0-0.2,0-0.2,0c-0.1,0-0.2,0-0.3,0c-0.1,0-0.1,0-0.2,0c-0.1,0-0.2,0-0.4,0c-0.1,0-0.1,0-0.2,0c-0.1,0-0.3,0-0.4,0
			c0,0-0.1,0-0.1,0c-1.7-0.1-3.5-0.5-5-1.4c-0.1,0-0.2-0.1-0.2-0.1c-0.1,0-0.1-0.1-0.2-0.1c-1.5-0.9-2.8-2.2-3.7-3.7c0,0,0,0,0-0.1
			c-0.1-0.1-0.1-0.2-0.2-0.4c0,0-0.1-0.1-0.1-0.1c-0.1-0.1-0.1-0.2-0.2-0.3c0-0.1-0.1-0.1-0.1-0.2c0-0.1-0.1-0.2-0.1-0.3
			c0-0.1-0.1-0.1-0.1-0.2c0-0.1-0.1-0.2-0.1-0.3c0-0.1-0.1-0.2-0.1-0.2c0-0.1-0.1-0.2-0.1-0.3c0-0.1-0.1-0.2-0.1-0.3
			c0-0.1,0-0.2-0.1-0.3c0-0.1,0-0.2-0.1-0.3c0-0.1,0-0.2-0.1-0.2c0-0.1,0-0.2-0.1-0.3c0-0.1,0-0.2,0-0.2c0-0.1,0-0.2,0-0.3
			c0-0.1,0-0.1,0-0.2c0-0.1,0-0.2,0-0.3c0-0.1,0-0.1,0-0.2c0-0.1,0-0.2,0-0.4c0,0,0-0.1,0-0.1c0-0.1,0-0.3,0-0.4c0,0,0,0,0-0.1
			c0-1.8,0.5-3.5,1.4-5c0-0.1,0.1-0.1,0.1-0.2c0-0.1,0.1-0.1,0.1-0.2c0.9-1.5,2.2-2.8,3.7-3.7c0,0,0,0,0.1,0
			c0.1-0.1,0.2-0.1,0.4-0.2c0,0,0.1-0.1,0.1-0.1c0.1-0.1,0.2-0.1,0.3-0.2c0.1,0,0.1-0.1,0.2-0.1c0.1,0,0.2-0.1,0.3-0.1
			c0.1,0,0.1-0.1,0.2-0.1c0.1,0,0.2-0.1,0.3-0.1c0.1,0,0.2-0.1,0.2-0.1c0.1,0,0.2-0.1,0.3-0.1c0.1,0,0.2-0.1,0.3-0.1
			c0.1,0,0.2-0.1,0.3-0.1c0.1,0,0.2,0,0.3-0.1c0.1,0,0.2,0,0.2-0.1c0.1,0,0.2,0,0.3-0.1c0.1,0,0.2,0,0.2,0c0.1,0,0.2,0,0.3,0
			c0.1,0,0.1,0,0.2,0c0.1,0,0.2,0,0.3,0c0.1,0,0.1,0,0.2,0c0.1,0,0.3,0,0.4,0c0,0,0.1,0,0.1,0c0.1,0,0.3,0,0.4,0c0,0,0,0,0.1,0
			c1.8,0,3.5,0.5,5,1.4c0.1,0,0.1,0.1,0.2,0.1c0.1,0,0.2,0.1,0.2,0.1c1.5,0.9,2.8,2.2,3.7,3.7c0,0,0,0,0,0.1
			c0.1,0.1,0.1,0.2,0.2,0.4c0,0,0,0.1,0.1,0.1c0.1,0.1,0.1,0.2,0.2,0.3c0,0.1,0.1,0.1,0.1,0.2c0,0.1,0.1,0.2,0.1,0.3
			c0,0.1,0.1,0.1,0.1,0.2c0,0.1,0.1,0.2,0.1,0.3c0,0.1,0.1,0.1,0.1,0.2c0,0.1,0.1,0.2,0.1,0.3c0,0.1,0,0.2,0.1,0.2
			c0,0.1,0.1,0.2,0.1,0.3c0,0.1,0,0.2,0.1,0.3c0,0.1,0,0.2,0.1,0.3c0,0.1,0,0.2,0.1,0.3c0,0.1,0,0.2,0,0.3c0,0.1,0,0.2,0,0.3
			c0,0.1,0,0.2,0,0.2c0,0.1,0,0.2,0,0.3c0,0.1,0,0.1,0,0.2c0,0.1,0,0.2,0,0.4c0,0.1,0,0.1,0,0.2C49.6,38.6,49.6,38.7,49.6,38.9
			C49.6,38.9,49.6,38.9,49.6,38.9L49.6,38.9z"/>
	</g>
</g>
<path class="st1" d="M277.9,133.9c2.8,0,4.4,1.8,4.5,1.8c4,4,1.1,10.8-4.5,10.8c-2.9,0-4.4-1.9-4.5-1.9
	C269.5,140.7,272.3,133.9,277.9,133.9L277.9,133.9z M280.8,137.4c-2.5-2.5-6.9-0.7-6.9,2.8c0,1.1,0.4,2.1,1.2,2.8v0
	c2.5,2.5,6.9,0.7,6.9-2.8C281.9,139.1,281.5,138.1,280.8,137.4L280.8,137.4z"/>
<g>
	<path class="st0" d="M278,101.6c-21.4,0-38.7,17.3-38.7,38.7c0,21.3,17.3,38.6,38.7,38.6s38.6-17.3,38.6-38.6
		C316.6,118.9,299.3,101.6,278,101.6z M278,174c-18.6,0-33.7-15.1-33.7-33.7s15.1-33.7,33.7-33.7s33.7,15.1,33.7,33.7
		S296.6,174,278,174z"/>
	<path class="st0" d="M278,108.5c-17.5,0-31.8,14.3-31.8,31.8s14.2,31.7,31.7,31.7s31.7-14.2,31.7-31.7S295.5,108.5,278,108.5z"/>
	<path class="st1" d="M277.9,125.9c12.7,0,19.2,15.5,10.2,24.5c-9,9-24.5,2.6-24.5-10.2C263.5,132.3,270,125.9,277.9,125.9
		L277.9,125.9z M286.4,131.7c-7.6-7.6-20.6-2.2-20.6,8.5c0,10.7,13,16.1,20.6,8.5C291.1,144,291.1,136.4,286.4,131.7L286.4,131.7z"
		/>
	<path class="st1" d="M277.9,121.8c4.5,0,8.6,1.6,11.7,4.2c-0.4-3.2,4.6-3.5,4.6-0.3c0,1.3-1.2,2.4-2.5,2.3c6,6.8,6.1,17,0.3,24
		c3,0.1,2.9,4.6,0,4.6c-1.3,0-2.3-1-2.3-2.3c-6.8,5.6-16.7,5.6-23.4,0c0,3-4.6,3-4.6,0c0-1.3,1-2.3,2.2-2.3c-5.9-7-5.7-17.2,0.3-24
		c-3.1,0.3-3.4-4.6-0.2-4.6c1.4,0,2.4,1.2,2.3,2.6C269.4,123.4,273.5,121.8,277.9,121.8L277.9,121.8z M289.3,128.8
		c-10.1-10.1-27.4-2.9-27.4,11.4c0,14.3,17.3,21.5,27.4,11.4C295.6,145.3,295.6,135.1,289.3,128.8L289.3,128.8z"/>
	<path class="st1" d="M277.9,115.4c13.7,0,24.8,11.1,24.8,24.8c0,13.7-11.1,24.8-24.8,24.8c-13.7,0-24.8-11.1-24.8-24.8
		C253.1,126.5,264.2,115.4,277.9,115.4L277.9,115.4z M293.8,124.3c-14.1-14.1-38.4-4.1-38.4,15.9c0,20,24.3,30,38.4,15.9
		C302.6,147.3,302.6,133.1,293.8,124.3L293.8,124.3z"/>
</g>
</svg>
