<?xml version="1.0" encoding="utf-8"?>
<!-- Generator: Adobe Illustrator 27.2.0, SVG Export Plug-In . SVG Version: 6.00 Build 0)  -->
<svg version="1.1" id="Layer_1" xmlns="http://www.w3.org/2000/svg" xmlns:xlink="http://www.w3.org/1999/xlink" x="0px" y="0px"
	 viewBox="0 0 77.3 77.3" style="enable-background:new 0 0 77.3 77.3;" xml:space="preserve">
<style type="text/css">
	.st0{fill:#E02330;}
</style>
<g>
	<path class="st0" d="M38.7,0C17.3,0,0,17.3,0,38.7C0,60,17.3,77.3,38.7,77.3S77.3,60,77.3,38.7C77.3,17.3,60,0,38.7,0z M38.7,72.4
		c-18.6,0-33.7-15.1-33.7-33.7c0-18.6,15.1-33.7,33.7-33.7c18.6,0,33.7,15.1,33.7,33.7C72.4,57.3,57.3,72.4,38.7,72.4z"/>
	<g>
		<polygon class="st0" points="35.1,43.8 44.2,38.7 35.1,33.5 		"/>
		<path class="st0" d="M38.7,6.9C21.2,6.9,6.9,21.2,6.9,38.7s14.2,31.7,31.7,31.7c17.5,0,31.7-14.2,31.7-31.7S56.2,6.9,38.7,6.9z
			 M55.4,47.1c-0.4,1.5-1.6,2.7-3.1,3.1C49.6,51,38.7,51,38.7,51S27.7,51,25,50.2c-1.5-0.4-2.7-1.6-3.1-3.1
			c-0.7-2.7-0.7-8.5-0.7-8.5s0-5.7,0.7-8.5c0.4-1.5,1.6-2.7,3.1-3.1c2.7-0.7,13.6-0.7,13.6-0.7s10.9,0,13.6,0.7
			c1.5,0.4,2.7,1.6,3.1,3.1c0.7,2.7,0.7,8.5,0.7,8.5S56.1,44.4,55.4,47.1z"/>
	</g>
</g>
</svg>
