<?xml version="1.0" encoding="utf-8"?>
<!-- Generator: Adobe Illustrator 27.2.0, SVG Export Plug-In . SVG Version: 6.00 Build 0)  -->
<svg version="1.1" id="Layer_1" xmlns="http://www.w3.org/2000/svg" xmlns:xlink="http://www.w3.org/1999/xlink" x="0px" y="0px"
	 viewBox="0 0 77.3 77.3" style="enable-background:new 0 0 77.3 77.3;" xml:space="preserve">
<style type="text/css">
	.st0{fill:#FFFFFF;}
	.st1{fill:#E02330;}
</style>
<rect x="17.9" y="20.6" class="st0" width="41.7" height="37.7"/>
<g>
	<path class="st1" d="M38.7,0C17.3,0,0,17.3,0,38.7C0,60,17.3,77.3,38.7,77.3S77.3,60,77.3,38.7C77.3,17.3,60,0,38.7,0z M38.7,72.4
		C20.1,72.4,5,57.3,5,38.7S20.1,5,38.7,5s33.7,15.1,33.7,33.7S57.3,72.4,38.7,72.4z"/>
	<path class="st1" d="M38.7,6.9C21.2,6.9,6.9,21.2,6.9,38.7s14.2,31.7,31.7,31.7s31.7-14.2,31.7-31.7S56.2,6.9,38.7,6.9z M45.6,28.8
		c0,0-2.4,0-3.3,0c-1.2,0-1.4,0.5-1.4,1.7c0,1,0,2.9,0,2.9h4.7l-0.5,5.1h-4.3v15.3h-6.1V38.6h-3.2v-5.2h3.2c0,0,0-0.7,0-4.1
		c0-3.8,2-5.8,6.6-5.8c0.7,0,4.2,0,4.2,0L45.6,28.8L45.6,28.8z"/>
</g>
</svg>
