<?xml version="1.0" encoding="UTF-8"?>
<svg id="Layer_1" data-name="Layer 1" xmlns="http://www.w3.org/2000/svg" viewBox="0 0 77.3 77.3">
  <defs>
    <style>
      .cls-1 {
        fill: #fff;
      }

      .cls-2 {
        fill: #e02330;
      }
    </style>
  </defs>
  <g>
    <path class="cls-2" d="m38.7,6.9c-17.5,0-31.8,14.3-31.8,31.8s14.2,31.7,31.7,31.7,31.7-14.2,31.7-31.7S56.2,6.9,38.7,6.9Z"/>
    <path class="cls-2" d="m38.7,0C17.3,0,0,17.3,0,38.7s17.3,38.6,38.7,38.6,38.6-17.3,38.6-38.6S60,0,38.7,0Zm0,72.4c-18.6,0-33.7-15.1-33.7-33.7S20.1,5,38.7,5s33.7,15.1,33.7,33.7-15.1,33.7-33.7,33.7Z"/>
    <path class="cls-1" d="m38.6,24.28c12.75,0,19.18,15.49,10.15,24.51-9.03,9.03-24.51,2.6-24.51-10.15,0-7.93,6.43-14.36,14.36-14.36h0Zm8.52,5.84c-7.57-7.58-20.58-2.18-20.58,8.52s13.01,16.1,20.58,8.52c4.71-4.71,4.71-12.34,0-17.05h0Z"/>
    <path class="cls-1" d="m38.6,20.27c4.46,0,8.55,1.59,11.74,4.24-.38-3.17,4.56-3.46,4.56-.27,0,1.34-1.15,2.4-2.5,2.28,6,6.83,6.11,17.02.25,23.97,2.98.06,2.94,4.58-.04,4.58-1.26,0-2.28-1.01-2.29-2.27-6.8,5.63-16.65,5.63-23.45,0-.04,3-4.58,2.97-4.58-.02,0-1.25,1-2.27,2.24-2.29-5.86-6.95-5.75-17.15.26-23.97-3.15.28-3.36-4.57-.21-4.57,1.37,0,2.43,1.2,2.27,2.56,3.18-2.64,7.28-4.24,11.74-4.24h0Zm11.37,7.01c-10.1-10.1-27.44-2.91-27.44,11.37s17.34,21.47,27.44,11.37c6.28-6.28,6.28-16.46,0-22.74h0Z"/>
    <path class="cls-1" d="m38.6,13.85c13.69,0,24.79,11.1,24.79,24.8s-11.1,24.79-24.79,24.79-24.8-11.1-24.8-24.79,11.1-24.8,24.8-24.8h0Zm15.91,8.89c-14.14-14.14-38.4-4.07-38.4,15.91s24.26,30.04,38.4,15.91c8.78-8.79,8.78-23.03,0-31.81h0Z"/>
  </g>
  <path class="cls-1" d="m38.6,32.33c2.85,0,4.43,1.85,4.47,1.85,3.98,3.98,1.13,10.8-4.47,10.8-2.85,0-4.43-1.85-4.47-1.85-3.98-3.98-1.12-10.79,4.47-10.79h0Zm2.84,3.48c-2.52-2.52-6.86-.74-6.86,2.84,0,1.11.45,2.11,1.17,2.84h0c2.52,2.52,6.86.74,6.86-2.84,0-1.11-.45-2.12-1.18-2.84h0Z"/>
</svg>