<?xml version="1.0" encoding="UTF-8"?>
<svg id="Layer_1" data-name="Layer 1" xmlns="http://www.w3.org/2000/svg" viewBox="0 0 77.3 77.3">
  <defs>
    <style>
      .cls-1 {
        fill: #fff;
      }

      .cls-2 {
        fill: #e02330;
      }
    </style>
  </defs>
  <path class="cls-2" d="m38.7,0C17.3,0,0,17.3,0,38.7s17.3,38.6,38.7,38.6,38.6-17.3,38.6-38.6S60,0,38.7,0Zm0,72.4c-18.6,0-33.7-15.1-33.7-33.7S20.1,5,38.7,5s33.7,15.1,33.7,33.7-15.1,33.7-33.7,33.7Z"/>
  <path class="cls-2" d="m38.7,6.9c-17.5,0-31.8,14.3-31.8,31.8s14.2,31.7,31.7,31.7,31.7-14.2,31.7-31.7S56.2,6.9,38.7,6.9Z"/>
  <g>
    <path class="cls-1" d="m59.04,16.8h0s-21.52,0-21.52,0c-.88,0-1.59.71-1.59,1.59v5.86c0,.88.71,1.59,1.59,1.59h1.4l-.08.13-8.35-.29c-1.33-.49-7.15-2.58-14.9-4.63v3.32c8.11,2.18,13.9,4.33,14.03,4.38.16.06.33.09.5.1l5.83.2,12.65,1.28,3.52,9.15c-1.32,2-4.41,6.55-5.39,7.49-.57.55-1.55.89-2.37,1.08.07-.54.12-1.09.12-1.65,0-6.9-5.61-12.51-12.51-12.51s-12.51,5.61-12.51,12.51c0,2.86.97,5.5,2.6,7.61h-6.46v3.18h10.06c1.86,1.09,4.01,1.73,6.32,1.73,2.61,0,5.03-.8,7.04-2.17l13.66-.88c.84-.05,1.49-.75,1.49-1.59v-11.58l1.2-1.84c.28-.43.33-.96.15-1.44l-3.84-9.99.35-3.53h3.33c.21,0,.42-.04.61-.12l3.71-1.55c.59-.25.98-.83.98-1.47v-4.37c0-.88-.72-1.59-1.6-1.59Zm-27.08,38.93c-5.15,0-9.33-4.18-9.33-9.33s4.19-9.33,9.33-9.33,9.33,4.19,9.33,9.33-4.19,9.33-9.33,9.33Zm19-2.96l-8.6.56c.73-1.09,1.28-2.3,1.64-3.6.96-.17,2.74-.59,3.81-1.62.66-.63,1.95-2.39,3.15-4.12v8.78Zm-2.43-24.05l-7.2-.73,1.73-2.94c.15-.26.22-.56.21-.85h5.7l-.45,4.52Zm6.72-6.11h-16.14v-2.64h18.34v1.72s-2.2.92-2.2.92Z"/>
    <path class="cls-1" d="m31.96,39.65c-3.72,0-6.75,3.03-6.75,6.75s3.03,6.75,6.75,6.75,6.75-3.03,6.75-6.75-3.03-6.75-6.75-6.75Zm0,11.12c-2.41,0-4.37-1.96-4.37-4.37s1.96-4.37,4.37-4.37,4.37,1.96,4.37,4.37-1.96,4.37-4.37,4.37Z"/>
  </g>
</svg>