<?xml version="1.0" encoding="utf-8"?>
<!-- Generator: Adobe Illustrator 27.2.0, SVG Export Plug-In . SVG Version: 6.00 Build 0)  -->
<svg version="1.1" id="Layer_1" xmlns="http://www.w3.org/2000/svg" xmlns:xlink="http://www.w3.org/1999/xlink" x="0px" y="0px"
	 viewBox="0 0 77.3 77.3" style="enable-background:new 0 0 77.3 77.3;" xml:space="preserve">
<style type="text/css">
	.st0{fill:#E02330;}
	.st1{fill:#FFFFFF;stroke:#FFFFFF;stroke-width:2.3043;stroke-miterlimit:10;}
</style>
<g>
	<path class="st0" d="M38.7,0C17.3,0,0,17.3,0,38.7C0,60,17.3,77.3,38.7,77.3S77.3,60,77.3,38.7C77.3,17.3,60,0,38.7,0z M38.7,72.4
		C20.1,72.4,5,57.3,5,38.7S20.1,5,38.7,5s33.7,15.1,33.7,33.7S57.3,72.4,38.7,72.4z"/>
	<path class="st0" d="M38.7,6.9C21.2,6.9,6.9,21.2,6.9,38.7s14.2,31.7,31.7,31.7s31.7-14.2,31.7-31.7S56.2,6.9,38.7,6.9z"/>
	<path class="st1" d="M52.3,53.3h-0.9V52c0-0.4-0.3-0.7-0.7-0.7c-0.4,0-0.7,0.3-0.7,0.7v1.3l-3.8,0l-0.5-7h0.8h0
		c0.4,0,0.7-0.3,0.7-0.7s-0.3-0.7-0.7-0.7h-0.9L45,38.7h0.5v0c0.4,0,0.7-0.3,0.7-0.7c0-0.4-0.3-0.7-0.7-0.7h-0.6l-0.2-3.1h4
		c0.9,0,1.8-0.4,2.5-1c0.7-0.7,1-1.6,1-2.5v-8.1c0-0.9-0.4-1.8-1-2.5c-0.7-0.7-1.6-1-2.5-1H29.5c-0.9,0-1.8,0.4-2.5,1
		c-0.7,0.7-1,1.6-1,2.5v4.1h-0.8l-2.6-6.6c-0.3-0.7-0.9-1.2-1.7-1.4c-0.8-0.1-1.5,0.1-2.1,0.7c-0.5,0.6-0.7,1.4-0.5,2.1l1.9,6.5
		c-0.5,0.7-0.7,1.5-0.6,2.3c0.1,0.8,0.5,1.6,1.1,2.1c0.6,0.5,1.4,0.8,2.2,0.8H27c0.7,0.6,1.5,1,2.4,1h2.6l3.8,19.3
		c-1,0.4-1.7,1.2-1.9,2.2c-0.3,1,0,2.1,0.6,2.9c0.6,0.8,1.6,1.3,2.6,1.3H50v1.3c0,0.4,0.3,0.7,0.7,0.7c0.4,0,0.7-0.3,0.7-0.7V60
		l0.9,0c1.2,0,2.3-0.6,2.9-1.7c0.6-1,0.6-2.3,0-3.3C54.6,53.9,53.5,53.3,52.3,53.3L52.3,53.3z M50.9,22.6v4.1H38.6
		c-1.1,0-2.2-0.3-3.1-1c-0.9-0.6-1.6-1.5-2-2.6l-1-2.7h16.2c0.6,0,1.1,0.2,1.5,0.6C50.7,21.5,50.9,22,50.9,22.6L50.9,22.6z
		 M19.7,20.4c0.2-0.2,0.5-0.4,0.8-0.3c0.3,0,0.6,0.2,0.7,0.5l2.4,6.1h-0.8c-0.5,0-1,0.1-1.5,0.4l-1.8-5.9
		C19.5,20.9,19.6,20.6,19.7,20.4L19.7,20.4z M21,29.9c0-0.5,0.2-1,0.6-1.3c0.4-0.4,0.8-0.6,1.3-0.6h3.1v2.6c0,0.4,0.1,0.8,0.2,1.2
		h-3.3c-0.5,0-1-0.2-1.3-0.6C21.2,30.9,21,30.4,21,29.9L21,29.9z M27.3,30.7l0-8.1c0-0.6,0.2-1.1,0.6-1.5c0.4-0.4,0.9-0.6,1.5-0.6
		h1.6l1.2,3.1h0c0.5,1.3,1.3,2.4,2.5,3.2c1.1,0.8,2.5,1.2,3.9,1.2h12.3v2.6c0,0.6-0.2,1.1-0.6,1.5c-0.4,0.4-0.9,0.6-1.5,0.6H29.5
		c-0.6,0-1.1-0.2-1.5-0.6C27.6,31.8,27.3,31.2,27.3,30.7L27.3,30.7z M43.3,34.2l0.2,3.1h-3.1c-0.4,0-0.7,0.3-0.7,0.7
		s0.3,0.7,0.7,0.7h3.2l0.5,6.2h-2.7v0c-0.4,0-0.7,0.3-0.7,0.7s0.3,0.7,0.7,0.7h2.8l0.5,7h-7.5l-3.8-19.1L43.3,34.2z M37.2,58.6
		c-0.7,0-1.3-0.4-1.7-1c-0.4-0.6-0.4-1.4,0-2c0.4-0.6,1-1,1.7-1H50v3.9H37.2z M52.3,58.6h-0.9v-3.9h0.9c0.7,0,1.3,0.4,1.7,1
		c0.4,0.6,0.4,1.4,0,2C53.6,58.2,53,58.6,52.3,58.6z"/>
</g>
</svg>
