<?xml version="1.0" encoding="utf-8"?>
<!-- Generator: Adobe Illustrator 27.2.0, SVG Export Plug-In . SVG Version: 6.00 Build 0)  -->
<svg version="1.1" id="Layer_1" xmlns="http://www.w3.org/2000/svg" xmlns:xlink="http://www.w3.org/1999/xlink" x="0px" y="0px"
	 viewBox="0 0 200 118.5" style="enable-background:new 0 0 200 118.5;" xml:space="preserve">
<style type="text/css">
	.st0{fill:#EC2027;stroke:#000000;stroke-width:2.5441;stroke-miterlimit:10;}
	.st1{fill:#818285;stroke:#000000;stroke-width:2.5441;stroke-linecap:round;stroke-miterlimit:10;}
	.st2{fill:#59585A;stroke:#000000;stroke-width:2.5441;stroke-linecap:round;stroke-miterlimit:10;}
	.st3{fill:#EC2027;stroke:#000000;stroke-width:1.0903;stroke-miterlimit:10;}
	.st4{fill:#FFFFFF;}
	.st5{fill:#EC2027;}
</style>
<polygon class="st0" points="98.8,10.5 11.5,29.9 18.2,76.2 60.3,98.3 67,96.7 98.8,111.5 130.6,96.7 137.3,98.3 179.4,76.2 
	186.1,29.9 "/>
<polyline class="st1" points="98.8,105.5 67.7,91.1 61.2,92.6 23.1,72.2 17.5,34 98.8,16 "/>
<polyline class="st2" points="98.8,105.5 129.9,91.1 136.4,92.6 174.5,72.2 180.1,34 98.8,16 "/>
<path class="st3" d="M84.8,100.3v3h7.5l-0.2,7.4c0,0,1-0.8,1.4-0.5c0.4,0.3,0.1,0.2,0.7,0.5s0.3,0.3,0.6,0.3c0.3,0,0.4,0.2,0.7,0
	s-0.2-0.1,0.2-0.2s1.2-0.1,1.5,0.3c0.3,0.4,0.5,0.7,0.8,0.8c0.2,0.1,0.9,0.1,1.1,0s-0.3-0.1,0.5-0.4c0.8-0.3,1.5,0,1.5,0
	s-0.1,0.4,0.3,0.5c0.3,0.1,0.3-0.6,0.8-0.5c0.5,0.1,0.8,0.3,0.8,0.3s0.6,0.8,0.7,0.6c0.1-0.2-0.8-0.5,0-0.5s0.8-0.1,1.1-0.1
	c0.3,0.1,0.5,0.2,0.8,0.2s0.9-0.3,0.9-0.3s-0.3-7.4-0.3-7.7c0-0.3-0.1-1-0.1-1.4c-0.1-0.4-0.1-1.2-0.1-1.2L84.8,100.3z"/>
<g>
	<path d="M95.1,106.4L95.1,106.4c0.4-0.1,1.4-0.2,1.4-1.2c0-0.3-0.1-0.6-0.3-0.7c-0.4-0.3-1-0.3-1.3-0.2l0,0.2l0-0.2
		c-0.1,0-1.6,0.1-1.8,1.1c-0.1,0.3,0,0.5,0.2,0.7c0.3,0.3,1,0.4,1.4,0.4C94.9,106.4,95.1,106.4,95.1,106.4z M93.6,105.4
		c0.2-0.8,1.4-0.8,1.4-0.8l0.1,0c0.1,0,0.3,0,0.5,0c0.2,0,0.4,0,0.6,0.2c0.1,0.1,0.2,0.2,0.2,0.4c0,0.7-0.6,0.8-1.1,0.9l-0.1,0
		c-0.2,0-1.1,0.1-1.4-0.3C93.6,105.7,93.5,105.6,93.6,105.4z"/>
	<polygon points="97.7,104.7 97.6,104 97.3,104.1 97.3,104.9 97.2,105 97.3,105.1 97.4,106.3 97.7,106.3 97.7,105.2 99.3,106 
		99.5,105.7 97.9,105 99.8,103.9 99.6,103.6 	"/>
	<rect x="100.8" y="103.6" transform="matrix(0.9944 -0.1061 0.1061 0.9944 -10.5429 11.3018)" width="0.4" height="2.3"/>
	<polygon points="104.3,105.6 104.3,105.3 102.5,105.4 102.4,104.8 103.5,104.7 103.4,104.3 102.3,104.5 102.2,104 104.3,103.7 
		104.3,103.3 101.8,103.7 102.2,105.8 	"/>
	<path d="M95.9,106.8h-0.1c-0.1,0-0.3,0-0.9,1.2c-0.3-0.4-0.7-0.9-0.8-0.9L94,107l-0.1,0.1c-0.3,0.3-0.4,1.5-0.4,1.7h0.4
		c0-0.4,0.1-1,0.2-1.3c0.2,0.2,0.6,0.7,0.7,0.9l0.2,0.3l0.1-0.3c0.2-0.4,0.5-0.9,0.7-1.2c0.6,1.2,0.6,1.2,0.7,1.3l0.1-0.2l0.1-0.1
		c-0.1-0.1-0.4-0.8-0.7-1.4L95.9,106.8z"/>
	<polygon points="97,108.2 97.3,108.4 98.4,107.1 99,107.8 98.1,108 98.2,108.3 99.7,108.1 98.4,106.5 	"/>
	<path d="M101.6,106.4c-0.6,0-1.5,0.1-1.5,0.1l0,0.4c0,0,0.9,0,1.5-0.1c0.1,0,0.2,0,0.2,0.1c0.1,0.1,0,0.3,0,0.6l0,0.1
		c0,0.2-0.7,0.4-1.4,0.4v-0.7H100v1.1l0.2,0c0.4,0,1.9-0.1,1.9-0.8l0-0.1c0-0.3,0.1-0.7-0.1-0.9C102,106.4,101.8,106.4,101.6,106.4z
		"/>
	<polygon points="103.2,107.2 104.3,107.2 104.3,106.8 103.2,106.8 103.2,106.4 104.4,106.4 104.4,106 102.8,106.1 102.9,107.9 
		104.4,107.9 104.4,107.5 103.2,107.5 	"/>
</g>
<g>
	<path d="M11.5,88.2c-0.8,0-4.9-0.2-7.6-3.1c-1.2-1.3-2.5-3.5-2.2-6.8c0.6-6.7,7.7-15.8,16.9-18.6L32.9,34l35.6-2.9l-1.2,1.2
		l0.8,1.8l4.2-3.3L84,30.1l0.5-0.4L99,28.9c0.1,0,0.3,0,0.6,0c1,0,2.7,0.2,4.4,1.1l0.8-1.7l30.9-2.6l6.7-0.6c0.1,0,0.6,0,1.3,0
		c2.2,0,5.1,0.4,7.4,2l3-3l34.1-2.4L171.9,38l-4.5,0.2l-2.9,7.2l0.9,0.8c0.9-0.2,1.8-0.4,2.7-0.5c7.3-0.8,15.6-1.2,16-1.2l12.5-0.7
		l-12.4,12.8c0.8,1.4,1.1,3,0.8,4.6c-0.4,2.8-1.7,5.8-3.6,8.1c-2.7,3.4-6.5,5.3-10.8,5.6c-4.4,0.3-10.1,0.7-13.6,0.9l-0.1,0.4
		L141,76.8c-1.3,0.8-2.7,1.2-4.2,1.3c-0.2,0-0.4,0-0.6,0c-2.2,0-4.1-0.8-5.4-2.3l-0.4,0l-1.7,2.5l-14.4,0.9
		c-1.7,0.4-3.6,0.7-5.5,0.8c-1.5,0.1-2.8,0.1-3.8,0.1c-3.2,0-5.4-0.4-7.2-1.4c-0.1,0-0.1-0.1-0.1-0.1l-6,0.4l-1.4,2.8l-16.7,0.7
		l0.2-0.4c-1.7,0.7-3.6,1.2-5.6,1.3c-7.3,0.6-16.8,1.2-16.9,1.2l-5.7,0.4c-1.8,0.6-3.7,0.9-5.6,0.9h-7l-0.4-0.1
		c-0.6-0.1-2.6-0.5-4.4-1.8h-0.8l-3.9,3.3L11.5,88.2L11.5,88.2L11.5,88.2z"/>
	<path class="st4" d="M184.9,23l-6.8,6.9l-5.9,5.9l-1,1l-1.4,0l-3.4,0.1l-3.4,8.3l0.1,0.8l1.8,1.6c1-0.3,2-0.5,3.1-0.7
		c7.2-0.8,15.6-1.2,15.9-1.2l9.2-0.5l-6.4,6.7l-4.4,4.5c1,1.2,1.4,2.9,1.2,4.6c-0.4,2.5-1.6,5.3-3.3,7.5c-2.5,3.1-5.9,4.9-9.9,5.1
		c-4.8,0.3-11.2,0.7-14.6,0.9l-0.1,0.4l-2.9,0.1l-5.5,0.2l-4.8,0.2l0.5-2c-0.9,1-3,3.1-6.3,3.3c-0.2,0-0.3,0-0.5,0
		c-2.2,0-3.9-1-4.8-2.4l-1.7,0.2l-0.7,1l-1,1.5l-1.8,0.1l-5.4,0.3l-6.8,0.4c-1.6,0.4-3.4,0.7-5.4,0.8c-1.5,0.1-2.7,0.1-3.7,0.1
		c-3,0-5-0.4-6.6-1.2c-0.1-0.1-0.3-0.2-0.4-0.2L90.8,78l-0.4,0.8l-0.9,1.9l-2.1,0.1l-5.5,0.2l-6.2,0.3l1.1-2.2
		c-2.4,1.8-5.4,2.9-8.7,3.2c-7.4,0.6-16.8,1.2-16.8,1.2L45.4,84c-1.6,0.5-3.4,0.9-5.4,0.9h-6.6h-0.3l-0.3-0.1
		c-0.5-0.1-2.5-0.5-4.2-1.8h-1.7l-3,2.6l-1,0.8l-1.2,0.1L11.6,87h-0.1h-0.1h0h0c-0.7,0-4.3-0.1-6.6-2.7c-1-1.1-2.1-3-1.8-5.9
		c0.5-5.9,7.1-15.1,16.5-17.7l2.3-4.1l11-19.7l1-1.7l1.9-0.2l19.7-1.6l9.9-0.8l0.9-0.1l0.1,0.1l1,2.4l0.4,1l4.3-3.4l0.9-0.7l1.2-0.1
		l7.2-0.4l3.4-0.2L85,31l1.3-0.1l12.8-0.8c0.1,0,0.3,0,0.5,0c1.2,0,3.2,0.2,4.9,1.7l0.3-0.6l0.9-1.9l2.1-0.2l19.5-1.6l8.6-0.7
		l6.7-0.6h0h0c0.1,0,0.5,0,1.1,0c2.3,0,5.5,0.4,7.5,2.4l2.5-2.5l1-1l1.4-0.1l19.2-1.4L184.9,23 M191.5,20l-6.7,0.5l-9.6,0.7
		l-19.2,1.4l-1.4,0.1l-1,0.1l-0.7,0.7l-1,1l-1,1c-1.9-1.1-4.4-1.6-7.2-1.6c-0.7,0-1.2,0-1.3,0h0h-0.1l-6.7,0.6l-8.6,0.7l-19.5,1.6
		l-2.1,0.2l-1.4,0.1l-0.6,1.3c-1.5-0.6-2.9-0.7-3.8-0.7c-0.3,0-0.6,0-0.7,0l-12.7,0.7l-1.3,0.1l-0.9,0l-0.5,0.4L81.1,29l-7.2,0.4
		l-1.2,0.1l-0.8,0l-0.1,0.1L65,30.1L55.1,31l-19.7,1.6l-1.9,0.2l-1.3,0.1L31.5,34l-1,1.7l-11,19.7l-1.8,3.2
		C8.1,61.7,1.1,71,0.5,78.1C0.1,82,1.6,84.5,2.9,86c3,3.3,7.3,3.5,8.5,3.5h0.1h0.1h0.1h0.1L21.9,89l1.2-0.1l0.9,0l0.7-0.6l1-0.8
		l2.2-1.9c2,1.2,4,1.6,4.6,1.7l0.3,0.1l0.2,0h0.2h0.3H40c2,0,4-0.3,5.9-0.9l5.5-0.4c0.1,0,9.5-0.6,16.9-1.2c1.6-0.1,3.2-0.4,4.6-0.9
		l2.9-0.1l6.2-0.3l5.5-0.2l2.1-0.1l1.5-0.1l0.7-1.3l0.7-1.4l4.9-0.3c1.9,1,4.3,1.4,7.7,1.4c1.1,0,2.3,0,3.9-0.1
		c2-0.1,3.8-0.4,5.6-0.8l6.5-0.4l5.4-0.3l1.8-0.1l1.3-0.1l0.7-1.1l0.7-1c1.4,1.2,3.3,1.8,5.4,1.8c0.2,0,0.4,0,0.7,0
		c1.6-0.1,3.1-0.5,4.5-1.3l1.3-0.1l4.8-0.2l5.5-0.2l2.9-0.1l2-0.1l0.1-0.5c3.6-0.2,8.7-0.5,12.6-0.8c4.7-0.3,8.8-2.4,11.7-6.1
		c2-2.5,3.4-5.7,3.9-8.7c0.2-1.6,0-3.2-0.6-4.6l3-3.2l6.4-6.7l4.5-4.7l-6.5,0.3l-9.2,0.5c-0.4,0-8.8,0.5-16.1,1.2
		c-0.6,0.1-1.2,0.2-1.8,0.3l2.1-5.2l1.7-0.1l1.4,0l1,0l0.7-0.7l1-1l5.9-5.9l6.8-6.9L191.5,20L191.5,20z"/>
</g>
<polygon class="st5" points="35.9,38.7 24.9,58.4 41.8,57.4 48.1,51.8 33.6,52.8 34.9,50.2 45.6,49.5 50.7,44.8 37.8,45.6 
	38.9,43.6 49.9,42.8 55.6,37.1 "/>
<polygon class="st5" points="56.4,37.1 60.3,46 45.5,56.8 52.9,56.4 61.7,49.6 64.3,55.4 72.2,54.9 67.8,45.4 81.4,35.2 74.2,35.6 
	66.2,42 63.8,36.5 "/>
<path class="st5" d="M80.8,39.9l5.7-5.3l12.8-0.8c0,0,4.1-0.4,3.8,3.8c-0.3,3.5-2.4,9.5-13.9,11.1c-1.4,0.2-4.8,0.3-7.8,0.4
	l-2.8,5.3l-5.4,0.2l5.4-10.2l6.3-0.2c0,0,8.9-0.3,10.4-1.6c1.5-1.2,2.3-3.7,0.5-3.7C94.1,38.8,80.8,39.9,80.8,39.9z"/>
<path class="st5" d="M108.1,32.9l-9.9,20.2l17.2-1.4c0,0,6.3-5.8,5.9-5.6c-0.4,0.1-14.8,1-14.8,1l1.2-2.3l10.4-0.9l5.1-4.9l-13.3,1
	l1.2-2.1l10.6-0.6l5.8-5.9L108.1,32.9z"/>
<path class="st5" d="M126.8,36.2l5.3-5.4l10.8-1c0,0,7.3-0.6,6.6,3.9s-3.5,8.2-7.2,9.2l2.6,6.6h-7.6l-1.5-4.6l-8.3,0.5l-2.1,5.2
	l-5.5,0.4l4.6-10.6l10.2-0.5c0,0,7.8,0.7,8.7-2.8c0.6-2.5-1.9-2-2.9-1.9C139.5,35.3,126.8,36.2,126.8,36.2z"/>
<polygon class="st5" points="150.8,34.3 156.3,28.7 175.6,27.3 169.7,33.2 164,33.5 158,48.2 152.4,48.7 158.5,33.8 "/>
<path class="st4" d="M36.2,62.6L30,68.1c0,0-7.9,0.3-9.3,0.6s-7.4,2.8-7.9,7.4c-0.2,2.1,2.3,2,3.3,2c1-0.1,11.9-0.9,11.9-0.9
	l-6.6,5.7l-10.1,0.5c0,0-5.3,0.1-4.8-4.6c0.4-4.7,6.7-13.6,15.7-14.9C31.3,62.5,36.2,62.6,36.2,62.6z"/>
<path class="st4" d="M37.5,62.4l5.4-0.3l-6.7,11.8c0,0-1,2.6,1.2,2.5c2.1-0.1,8.8,0.1,11.2-4.2c2.4-4.2,6.3-11.5,6.3-11.5l5.5-0.2
	L52.7,74c0,0-4.6,7.2-12.7,7.2c-4.4,0-6.6,0-6.6,0s-4.8-0.8-3.6-4.5C31,73.1,37.5,62.4,37.5,62.4z"/>
<path class="st4" d="M84.3,58.4l-5.6,5.2c0,0-12.9,1-13.6,1.4c-0.7,0.4-2.2,2.2,0,2.1c2.2-0.1,9.9-0.6,9.9-0.6s5-0.2,4,3.1
	c-0.9,3.3-3.8,8.5-11.3,9.1C60.3,79.4,51,80,51,80l6.3-5.4l13.8-1.1c0,0,2.5-0.9,2.4-2.1c-0.1-1-7.6-0.1-9.2,0
	c-1.6,0.1-6.3,0.3-6.2-1.9s3-9.1,10-9.8C75.2,58.8,84.3,58.4,84.3,58.4z"/>
<polygon class="st4" points="81.4,63.4 87.3,57.7 106.8,56.4 100.7,61.9 94.6,62.3 87.2,77.2 81.7,77.4 89.1,62.8 "/>
<path class="st4" d="M120.9,54.9h-2.7c-0.6,0-8.2,0.4-12.4,3.8c-4.3,3.4-7.5,8.6-7.4,12.6c0.1,4,3.7,4.3,10.2,3.9
	c16.3-0.9,17.8-14.9,17.8-14.9c0-0.1,0-0.6,0-2.1C126.3,55.5,120.9,54.9,120.9,54.9z M120.4,62.9c-0.2,1.7-1.4,6.8-9.5,7.3
	s-6.6-2.6-6.6-2.6s2.4-7.6,10.5-7.6C120.9,60,120.6,61.3,120.4,62.9z"/>
<path class="st4" d="M120.7,74l5.4-0.3l8.2-12.2v10.3c0,0,0,1.7,2.3,1.5c2.3-0.1,3.6-1.9,4.2-2.5C141.3,70.1,150,60,150,60
	l-2.7,11.7l5.5-0.2l3.4-17.7c0,0,0.5-2.2-1.7-2.2c-2.2,0-3,1.4-3.7,2c-0.7,0.7-11.1,12.4-11.1,12.4l0.1-11.4c0,0,0.1-1.5-2.1-1.5
	C134.4,53.1,124.3,69.2,120.7,74z"/>
<path class="st4" d="M184.2,49.3l-5.3,5.5c0,0-12,0.5-13.4,1.3s-1,2.5-0.6,2.5s9.6-1,10.6-1.1s4.9,0,4.5,3c-0.4,3-3.1,9-9.9,9.5
	S153.5,71,153.5,71l5.3-5.4c0,0,13.1-0.6,14.2-1.2c1.1-0.6,1.4-1.3,1.4-1.6c0-0.3,0.2-1.2-1.6-1s-13.3,2.1-13.6-0.9
	c-0.3-3,2.1-9.5,9.3-10.3C175.7,49.8,184.2,49.3,184.2,49.3z"/>
<g>
	<path class="st4" d="M15.8,22.5c0.4-0.1,0.7-0.2,1-0.5c0.2-0.2,0.4-0.5,0.6-0.8c-0.1,0-0.2,0.1-0.4,0.1c-0.1,0-0.3,0.1-0.6,0.2
		s-0.6,0.2-1,0.3s-1,0.2-1.7,0.4c-0.6,0.1-1.1,0.1-1.5,0c-0.4-0.1-0.6-0.5-0.7-0.9s-0.1-0.8,0.1-1.2c0.2-0.3,0.4-0.6,0.8-0.9
		s0.7-0.5,1.2-0.6c0.5-0.2,1-0.3,1.5-0.4c1.2-0.3,2.2-0.3,2.8,0c0.7,0.3,1.1,0.8,1.3,1.6c0.1,0.5,0.1,1,0,1.5
		c-0.1,0.5-0.3,0.9-0.6,1.3c-0.3,0.4-0.7,0.7-1.1,1c-0.5,0.3-1,0.5-1.5,0.6l-3.7,0.8l1.1-1.8L15.8,22.5z M13.8,20.9
		c0.4-0.1,0.8-0.2,1.1-0.3s0.6-0.1,0.8-0.2c0.2,0,0.4-0.1,0.6-0.1c0.1,0,0.3-0.1,0.4-0.1c0.1,0,0.2-0.1,0.3-0.1s0.2-0.1,0.2-0.1
		c0-0.2-0.1-0.3-0.3-0.4s-0.3-0.1-0.5-0.2c-0.2,0-0.4,0-0.7,0c-0.3,0-0.6,0.1-0.9,0.2c-0.4,0.1-0.7,0.2-1,0.3s-0.4,0.2-0.6,0.2
		c-0.1,0.1-0.2,0.2-0.2,0.2s0,0.2,0,0.3C13.2,20.9,13.4,21,13.8,20.9z"/>
	<path class="st4" d="M20.7,17l2.1-0.5l0.2,6l-1.8,0.4l-0.2-4.5l-1.4,0.3L20.7,17z"/>
	<path class="st4" d="M26.4,21.8c-0.4,0.1-0.7,0.1-1,0.1c-0.3,0-0.5-0.1-0.7-0.1c-0.2-0.1-0.3-0.2-0.4-0.4c-0.1-0.1-0.2-0.3-0.2-0.5
		c0-0.2-0.1-0.4,0-0.6c0-0.2,0.1-0.4,0.2-0.5s0.2-0.3,0.3-0.4c0.1-0.1,0.2-0.2,0.4-0.3c-0.2,0-0.3-0.1-0.5-0.2
		c-0.2-0.1-0.3-0.3-0.3-0.6c-0.1-0.3-0.1-0.6,0-0.8c0.1-0.3,0.2-0.5,0.4-0.7c0.2-0.2,0.4-0.4,0.7-0.5c0.3-0.1,0.6-0.3,1-0.4l2.8-0.6
		c0.6-0.1,1.1-0.1,1.6,0c0.4,0.1,0.7,0.4,0.8,0.9c0,0.2,0.1,0.4,0,0.6c0,0.2-0.1,0.3-0.1,0.5c-0.1,0.1-0.2,0.3-0.3,0.4
		s-0.2,0.2-0.3,0.3c0.2,0,0.4,0.1,0.6,0.2s0.3,0.4,0.4,0.6c0,0.2,0.1,0.5,0,0.7c0,0.2-0.1,0.5-0.3,0.7c-0.2,0.2-0.4,0.4-0.7,0.6
		c-0.3,0.2-0.8,0.3-1.3,0.5L26.4,21.8z M26.2,17.3c-0.1,0-0.3,0.1-0.4,0.2c-0.1,0.1-0.1,0.2-0.1,0.4c0,0.1,0.1,0.2,0.2,0.2
		c0.1,0,0.2,0,0.3,0l2.9-0.6c0.1,0,0.3-0.1,0.4-0.2c0.1-0.1,0.1-0.2,0.1-0.4c0-0.1-0.1-0.2-0.2-0.2c-0.1,0-0.2,0-0.3,0L26.2,17.3z
		 M26.3,19.4c-0.2,0-0.4,0.1-0.5,0.2c-0.1,0.1-0.1,0.2-0.1,0.4c0,0.2,0.2,0.3,0.6,0.2l2.9-0.6c0.2,0,0.4-0.1,0.5-0.2
		c0.1-0.1,0.1-0.2,0.1-0.4c0-0.2-0.2-0.3-0.6-0.2L26.3,19.4z"/>
	<path class="st4" d="M32.3,19.8c0-0.1,0-0.3,0-0.4c0-0.1,0.1-0.3,0.2-0.4c0.1-0.1,0.2-0.2,0.3-0.3c0.1-0.1,0.3-0.1,0.4-0.2
		c0.2,0,0.5,0,0.7,0.1c0.2,0.1,0.3,0.2,0.4,0.5c0,0.1,0,0.3,0,0.4c0,0.1-0.1,0.2-0.2,0.4c-0.1,0.1-0.2,0.2-0.3,0.3
		c-0.1,0.1-0.3,0.1-0.4,0.2c-0.2,0-0.5,0-0.6,0C32.5,20.2,32.4,20.1,32.3,19.8z"/>
	<path class="st4" d="M39.2,17.4c0.4-0.1,0.7-0.2,1-0.5c0.2-0.2,0.4-0.5,0.6-0.8c-0.1,0-0.2,0.1-0.3,0.1c-0.1,0-0.3,0.1-0.6,0.2
		s-0.6,0.2-1,0.3c-0.4,0.1-1,0.2-1.7,0.4c-0.6,0.1-1.1,0.1-1.5,0c-0.4-0.1-0.6-0.5-0.7-0.9s-0.1-0.8,0.1-1.2
		c0.2-0.3,0.4-0.6,0.8-0.9s0.7-0.5,1.2-0.6c0.5-0.2,1-0.3,1.5-0.4c1.2-0.3,2.2-0.3,2.8,0s1.1,0.8,1.3,1.6c0.1,0.5,0.1,1.1,0,1.5
		c-0.1,0.5-0.3,0.9-0.6,1.3c-0.3,0.4-0.7,0.7-1.2,1s-1,0.5-1.5,0.6l-3.7,0.8l1.1-1.8L39.2,17.4z M37.1,15.8c0.5-0.1,0.8-0.2,1.2-0.3
		c0.3-0.1,0.6-0.1,0.8-0.2c0.2-0.1,0.4-0.1,0.6-0.1c0.2,0,0.3-0.1,0.4-0.1c0.1,0,0.2-0.1,0.3-0.1s0.2-0.1,0.2-0.1
		c0-0.2-0.1-0.3-0.3-0.4s-0.3-0.1-0.5-0.2c-0.2,0-0.4,0-0.7,0s-0.6,0.1-0.9,0.2c-0.4,0.1-0.7,0.2-1,0.3s-0.4,0.2-0.6,0.2
		c-0.1,0.1-0.2,0.2-0.2,0.2c0,0.1,0,0.2,0,0.3C36.5,15.8,36.7,15.9,37.1,15.8z"/>
	<path class="st4" d="M44.2,16.3l4-0.9c0.2-0.1,0.4-0.1,0.5-0.2c0.1-0.1,0.1-0.2,0.1-0.4c0-0.2-0.2-0.3-0.6-0.2l-3.5,0.8l0.9-1.5
		l2.6-0.6c0.2,0,0.3-0.1,0.4-0.2c0.1-0.1,0.1-0.2,0.1-0.4c0-0.1-0.1-0.2-0.2-0.2c-0.1,0-0.2,0-0.3,0l-4.9,1.1l1.1-1.8L48,11
		c0.6-0.1,1.2-0.1,1.5,0c0.4,0.1,0.7,0.4,0.8,0.9c0,0.2,0.1,0.4,0,0.6c0,0.2-0.1,0.3-0.2,0.5c-0.1,0.1-0.2,0.3-0.3,0.4
		s-0.2,0.2-0.3,0.3c0.2,0,0.4,0.1,0.6,0.2c0.2,0.1,0.3,0.4,0.4,0.6c0,0.2,0.1,0.5,0,0.7c0,0.2-0.1,0.5-0.3,0.7
		c-0.2,0.2-0.4,0.4-0.7,0.6s-0.8,0.3-1.3,0.5l-5.1,1.1L44.2,16.3z"/>
	<path class="st4" d="M52.6,10L56,9.2c0.8-0.2,1.4-0.2,1.8,0c0.4,0.2,0.7,0.5,0.8,1c0.1,0.3,0.1,0.6,0,0.8c0,0.3-0.2,0.5-0.3,0.7
		c-0.2,0.2-0.4,0.4-0.7,0.6c-0.3,0.2-0.7,0.3-1.1,0.4l-2.8,0.6c-0.2,0.1-0.4,0.1-0.5,0.2s-0.1,0.2-0.1,0.4l0,0.4l5.6-1.2l-1.1,1.8
		l-6.2,1.3l-0.1-2c0-0.6,0.2-1,0.5-1.4c0.3-0.4,0.9-0.6,1.6-0.8l2.8-0.6c0.2-0.1,0.4-0.1,0.5-0.2c0.1-0.1,0.1-0.2,0.1-0.4
		c0-0.1-0.1-0.2-0.2-0.2s-0.2,0-0.4,0l-4.7,1L52.6,10z"/>
	<path class="st4" d="M59.6,13.9c0-0.1,0-0.3,0-0.4c0-0.1,0.1-0.3,0.2-0.4c0.1-0.1,0.2-0.2,0.3-0.3c0.1-0.1,0.3-0.1,0.4-0.2
		c0.2-0.1,0.5,0,0.7,0.1c0.2,0.1,0.3,0.2,0.4,0.5c0,0.1,0,0.3,0,0.4c0,0.1-0.1,0.3-0.2,0.4c-0.1,0.1-0.2,0.2-0.3,0.3
		s-0.3,0.1-0.4,0.2c-0.2,0.1-0.5,0-0.6-0.1C59.7,14.2,59.6,14.1,59.6,13.9z"/>
	<path class="st4" d="M64.5,13.4c-0.4,0.1-0.7,0.1-1,0.1c-0.3,0-0.5-0.1-0.7-0.1c-0.2-0.1-0.3-0.2-0.4-0.4c-0.1-0.1-0.2-0.3-0.2-0.5
		c0-0.2-0.1-0.4,0-0.6c0-0.2,0.1-0.4,0.2-0.5c0.1-0.2,0.2-0.3,0.3-0.4s0.2-0.2,0.4-0.3c-0.2,0-0.3-0.1-0.5-0.2
		c-0.2-0.1-0.3-0.3-0.3-0.6C62,9.5,62,9.2,62.1,9c0.1-0.3,0.2-0.5,0.4-0.7c0.2-0.2,0.4-0.4,0.7-0.5c0.3-0.2,0.7-0.3,1-0.3L67,6.8
		c0.6-0.1,1.2-0.1,1.6,0C69,7,69.2,7.3,69.3,7.7c0.1,0.2,0.1,0.4,0,0.6c0,0.2-0.1,0.3-0.2,0.5c-0.1,0.1-0.2,0.3-0.3,0.4
		c-0.1,0.1-0.2,0.2-0.3,0.3c0.2,0,0.4,0.1,0.6,0.2c0.2,0.1,0.3,0.4,0.4,0.6c0.1,0.2,0.1,0.5,0,0.7c0,0.2-0.1,0.5-0.3,0.7
		c-0.2,0.2-0.4,0.4-0.7,0.6c-0.3,0.2-0.8,0.3-1.3,0.5L64.5,13.4z M64.3,9c-0.1,0-0.3,0.1-0.4,0.2s-0.1,0.2-0.1,0.4
		c0,0.1,0.1,0.2,0.2,0.2c0.1,0,0.2,0,0.3,0l2.9-0.6c0.2,0,0.3-0.1,0.4-0.2c0.1-0.1,0.1-0.2,0.1-0.4c0-0.1-0.1-0.2-0.2-0.2
		c-0.1,0-0.2,0-0.3,0L64.3,9z M64.4,11.1c-0.2,0.1-0.4,0.1-0.5,0.2c-0.1,0.1-0.1,0.2-0.1,0.4c0,0.2,0.2,0.3,0.6,0.2l2.8-0.6
		c0.2-0.1,0.4-0.1,0.5-0.2c0.1-0.1,0.1-0.2,0.1-0.4c-0.1-0.2-0.2-0.3-0.6-0.2L64.4,11.1z"/>
	<path class="st4" d="M77.1,4.6L76,6.4l-3.6,0.8l0,0.8l2.8-0.6c0.6-0.1,1.1-0.1,1.5,0c0.4,0.2,0.6,0.4,0.7,0.9
		c0.1,0.3,0.1,0.6,0,0.9s-0.2,0.6-0.3,0.8c-0.2,0.2-0.4,0.5-0.8,0.6c-0.4,0.2-0.8,0.3-1.3,0.4l-4.6,1l1.1-1.8l3.6-0.8
		c0.2-0.1,0.4-0.1,0.5-0.2c0.1-0.1,0.1-0.2,0.1-0.4c-0.1-0.2-0.3-0.3-0.6-0.2l-4.4,1L70.5,6L77.1,4.6z"/>
	<path class="st4" d="M81.6,5.2c-0.4,0.1-0.7,0.2-0.9,0.4S80.2,6.1,80,6.4l3.7-0.8c0.6-0.1,1.1-0.1,1.5,0c0.4,0.2,0.6,0.5,0.7,0.9
		C86,6.9,86,7.3,85.8,7.7c-0.2,0.3-0.4,0.6-0.8,0.9S84.3,9,83.9,9.2s-1,0.3-1.5,0.4c-1.2,0.3-2.1,0.3-2.8,0
		c-0.7-0.3-1.1-0.8-1.3-1.7c-0.1-0.5-0.1-1,0-1.5c0.1-0.5,0.3-0.9,0.6-1.3s0.7-0.7,1.1-1s1-0.5,1.5-0.6l3.8-0.8l-1.1,1.8L81.6,5.2z
		 M80.1,7.6c0.1,0.2,0.2,0.3,0.3,0.4c0.1,0.1,0.3,0.2,0.5,0.2s0.4,0,0.7,0c0.3,0,0.6-0.1,0.9-0.2c0.4-0.1,0.7-0.2,1-0.3
		c0.2-0.1,0.4-0.2,0.6-0.2c0.1-0.1,0.2-0.2,0.2-0.2s0-0.2,0-0.3c0-0.2-0.2-0.3-0.6-0.2L80.1,7.6z"/>
	<path class="st4" d="M90.1,3.3c-0.4,0.1-0.7,0.2-0.9,0.4s-0.5,0.5-0.6,0.8l3.7-0.8c0.6-0.1,1.1-0.1,1.5,0c0.4,0.2,0.6,0.5,0.7,0.9
		c0.1,0.4,0.1,0.8-0.1,1.2s-0.4,0.6-0.8,0.9s-0.7,0.5-1.2,0.6s-1,0.3-1.5,0.4c-1.2,0.3-2.1,0.2-2.8,0c-0.7-0.3-1.1-0.8-1.3-1.7
		c-0.1-0.5-0.1-1,0-1.5c0.1-0.5,0.3-0.9,0.6-1.3s0.7-0.7,1.1-1c0.5-0.3,1-0.5,1.5-0.6l3.8-0.8l-1.1,1.8L90.1,3.3z M88.6,5.7
		c0.1,0.2,0.2,0.3,0.3,0.4s0.3,0.2,0.5,0.2s0.4,0,0.7,0s0.6-0.1,0.9-0.2c0.4-0.1,0.7-0.2,1-0.3c0.2-0.1,0.4-0.2,0.6-0.2
		c0.1-0.1,0.2-0.2,0.2-0.2s0-0.2,0-0.3c-0.1-0.2-0.3-0.3-0.6-0.2L88.6,5.7z"/>
</g>
<g>
	<path class="st4" d="M123.1,108.7l-0.7,2.2l-2,1l1.3,4.6l-1.8,0.8l-1.3-4.6L116,114l0.7-2.2L123.1,108.7z"/>
	<path class="st4" d="M132.1,108.4c0.5,1.9-0.4,3.4-2.8,4.5c-1.2,0.6-2.2,0.8-2.9,0.8c-0.7-0.1-1.3-0.4-1.6-1.1
		c-0.1-0.2-0.2-0.4-0.2-0.6l-1-3.5l1.8-0.8l1,3.5c0,0.1,0.1,0.2,0.1,0.3c0.1,0.2,0.2,0.3,0.3,0.3c0.1,0.1,0.3,0.1,0.4,0.1
		s0.4-0.1,0.7-0.2c0.3-0.1,0.6-0.2,1-0.4c0.3-0.2,0.6-0.3,0.8-0.5c0.2-0.2,0.4-0.3,0.5-0.5c0.1-0.2,0.2-0.3,0.2-0.5s0-0.4-0.1-0.6
		l-1-3.5l1.8-0.9L132.1,108.4z"/>
	<path class="st4" d="M139.6,106l-0.7,2.1l-5,2.4l-1.7-6.2l1.8-0.8l1.3,4.6L139.6,106z"/>
	<path class="st4" d="M145,101c0.6-0.3,1.1-0.4,1.6-0.3c0.4,0.1,0.7,0.3,0.9,0.7c0.1,0.3,0.2,0.6,0.3,0.9c0,0.3,0,0.6-0.2,0.9
		s-0.4,0.6-0.6,0.9c-0.3,0.3-0.7,0.5-1.2,0.8l-5.3,2.6l0.7-2.1l4.3-2.1c0.2-0.1,0.4-0.2,0.5-0.4c0.1-0.1,0.1-0.3,0-0.4
		c-0.1-0.2-0.3-0.2-0.7-0.1l-3.1,1.5c-0.6,0.3-1.2,0.4-1.6,0.3c-0.4-0.1-0.7-0.4-0.9-0.8c-0.1-0.3-0.2-0.6-0.2-0.9s0-0.6,0.2-0.9
		s0.4-0.6,0.7-0.8s0.7-0.5,1.2-0.8l4.9-2.4l-0.7,2.2l-3.9,1.9c-0.2,0.1-0.4,0.2-0.5,0.4c-0.1,0.1-0.1,0.3,0,0.4
		c0.1,0.2,0.3,0.2,0.7,0.1L145,101z"/>
	<path class="st4" d="M151,102.3l0.6-2.1l1.4-0.7c0.2-0.1,0.4-0.2,0.5-0.3s0.3-0.2,0.5-0.2c-0.1-0.1-0.2-0.2-0.4-0.3
		c-0.2-0.1-0.3-0.2-0.4-0.3l-1.5-1.1l-1.5,5.4l-2.1,1l2.1-7.3c0.1-0.2,0.2-0.5,0.3-0.7c0.1-0.2,0.4-0.4,0.6-0.6
		c0.3-0.1,0.5-0.2,0.7-0.1s0.4,0.1,0.6,0.3l5.1,3.9L151,102.3z"/>
	<path class="st4" d="M159.5,96.4l-0.1,2.9l-1,0.5l-0.7-2.5L159.5,96.4z"/>
	<path class="st4" d="M166.4,87.7c1.2-0.6,2.3-0.8,3.1-0.8s1.4,0.6,1.8,1.4c0.6,1.2,0.6,2.2,0.1,3.2c-0.5,0.9-1.6,1.8-3.1,2.6
		c-1.2,0.6-2.3,0.8-3.1,0.8c-0.8-0.1-1.4-0.6-1.8-1.4c-0.6-1.2-0.6-2.2-0.1-3.2C163.7,89.3,164.8,88.5,166.4,87.7z M167.7,92.5
		c0.6-0.3,1-0.5,1.4-0.8s0.6-0.4,0.7-0.7s0.2-0.5,0.1-0.8c-0.1-0.3-0.2-0.6-0.3-0.9c-0.1-0.2-0.2-0.4-0.4-0.5
		c-0.1-0.1-0.3-0.2-0.6-0.2c-0.2,0-0.5,0.1-0.8,0.2c-0.3,0.1-0.6,0.2-1,0.4c-0.6,0.3-1,0.5-1.4,0.8s-0.6,0.4-0.7,0.7
		s-0.2,0.5-0.1,0.8s0.2,0.6,0.3,0.9c0.1,0.2,0.2,0.4,0.4,0.5s0.3,0.2,0.6,0.2s0.5-0.1,0.8-0.2S167.3,92.7,167.7,92.5z"/>
	<path class="st4" d="M180.5,88.1l-2.7,1.3l-2.2-0.8c-0.4-0.1-0.7-0.2-0.9-0.3s-0.4-0.2-0.5-0.2l0.3,0.9l0.5,1.8l-1.8,0.8l-1.7-6.2
		l1.8-0.8l0.4,1.4c0.1,0.2,0.1,0.4,0.1,0.6s0.1,0.4,0.1,0.5c0.1-0.2,0.2-0.4,0.3-0.6c0.1-0.2,0.3-0.5,0.5-0.9l1.2-2.3l2.6-1.2
		l-1.7,2.8c-0.1,0.2-0.3,0.5-0.4,0.7s-0.2,0.3-0.3,0.5s-0.2,0.3-0.2,0.4s-0.1,0.2-0.2,0.3c0.2,0,0.4,0.1,0.7,0.2
		c0.3,0.1,0.7,0.2,1.1,0.3L180.5,88.1z"/>
</g>
</svg>
