<?xml version="1.0" encoding="utf-8"?>
<!-- Generator: Adobe Illustrator 27.2.0, SVG Export Plug-In . SVG Version: 6.00 Build 0)  -->
<svg version="1.1" id="Layer_1" xmlns="http://www.w3.org/2000/svg" xmlns:xlink="http://www.w3.org/1999/xlink" x="0px" y="0px"
	 viewBox="0 0 200 118.49" style="enable-background:new 0 0 200 118.49;" xml:space="preserve">
<style type="text/css">
	.st0{fill:#EC2027;stroke:#000000;stroke-width:2.5441;stroke-miterlimit:10;}
	.st1{fill:#818285;stroke:#000000;stroke-width:2.5441;stroke-linecap:round;stroke-miterlimit:10;}
	.st2{fill:#59585A;stroke:#000000;stroke-width:2.5441;stroke-linecap:round;stroke-miterlimit:10;}
	.st3{fill:#EC2027;stroke:#000000;stroke-width:1.0903;stroke-miterlimit:10;}
	.st4{fill:#FFFFFF;}
	.st5{fill:#EC2027;}
</style>
<polygon class="st0" points="98.8,10.49 11.46,29.89 18.25,76.2 60.3,98.26 67,96.69 98.8,111.52 130.6,96.69 137.3,98.26 
	179.35,76.2 186.14,29.89 "/>
<polyline class="st1" points="98.8,105.46 67.69,91.11 61.23,92.63 23.07,72.16 17.5,33.97 98.8,16.01 "/>
<polyline class="st2" points="98.8,105.46 129.91,91.11 136.37,92.63 174.53,72.16 180.1,33.97 98.8,16.01 "/>
<path class="st3" d="M84.75,100.33v3.04h7.51l-0.19,7.41c0,0,1-0.76,1.43-0.48c0.43,0.29,0.14,0.19,0.71,0.48
	c0.57,0.29,0.29,0.29,0.57,0.29c0.29,0,0.43,0.19,0.67,0c0.24-0.19-0.19-0.14,0.24-0.19c0.43-0.05,1.24-0.12,1.52,0.27
	c0.29,0.39,0.52,0.72,0.76,0.77c0.24,0.05,0.9,0.14,1.05,0s-0.33-0.1,0.48-0.4c0.81-0.31,1.52,0,1.52,0s-0.05,0.36,0.29,0.48
	c0.33,0.11,0.29-0.55,0.76-0.48c0.48,0.07,0.81,0.26,0.81,0.26s0.57,0.81,0.67,0.62c0.1-0.19-0.81-0.48,0-0.52s0.81-0.14,1.14-0.05
	c0.33,0.1,0.52,0.24,0.76,0.24s0.86-0.29,0.86-0.29s-0.29-7.37-0.29-7.7c0-0.33-0.1-1-0.14-1.38c-0.05-0.38-0.1-1.24-0.1-1.24
	L84.75,100.33z"/>
<g>
	<path d="M95.14,106.4l0.06-0.01c0.34-0.05,1.36-0.19,1.39-1.24c0.01-0.31-0.08-0.55-0.27-0.72c-0.37-0.34-1-0.26-1.34-0.21
		l-0.01,0.18l-0.01-0.18c-0.06,0-1.57,0.06-1.78,1.12c-0.05,0.26,0.01,0.49,0.18,0.67c0.32,0.34,0.97,0.4,1.39,0.4
		C94.95,106.42,95.08,106.41,95.14,106.4z M93.55,105.42c0.15-0.77,1.42-0.82,1.43-0.82l0.05-0.01c0.12-0.02,0.29-0.04,0.47-0.04
		c0.22,0,0.45,0.03,0.58,0.16c0.1,0.09,0.15,0.24,0.15,0.44c-0.02,0.65-0.56,0.81-1.08,0.89l-0.07,0.01
		c-0.22,0.03-1.13,0.05-1.44-0.28C93.55,105.67,93.52,105.56,93.55,105.42z"/>
	<polygon points="97.66,104.71 97.64,104.04 97.27,104.05 97.31,104.92 97.17,105.01 97.32,105.08 97.37,106.34 97.73,106.33 
		97.69,105.25 99.35,106.03 99.5,105.7 97.94,104.97 99.77,103.86 99.58,103.55 	"/>
	<rect x="100.77" y="103.6" transform="matrix(0.9944 -0.1061 0.1061 0.9944 -10.5444 11.3043)" width="0.36" height="2.27"/>
	<polygon points="104.31,105.64 104.28,105.28 102.48,105.44 102.36,104.84 103.46,104.7 103.41,104.34 102.29,104.48 102.2,103.96 
		104.32,103.66 104.27,103.3 101.77,103.65 102.18,105.83 	"/>
	<path d="M95.9,106.83h-0.11c-0.1,0-0.26,0-0.93,1.23c-0.29-0.38-0.73-0.87-0.76-0.89l-0.13-0.14l-0.14,0.14
		c-0.34,0.35-0.36,1.48-0.36,1.7l0.36,0c0-0.39,0.06-0.96,0.16-1.27c0.21,0.25,0.58,0.67,0.73,0.9l0.17,0.26l0.14-0.27
		c0.23-0.43,0.51-0.93,0.69-1.17c0.58,1.23,0.59,1.23,0.68,1.26l0.06-0.19l0.14-0.09c-0.05-0.07-0.38-0.76-0.67-1.37L95.9,106.83z"
		/>
	<polygon points="97.03,108.19 97.32,108.42 98.37,107.06 99,107.85 98.12,107.98 98.18,108.34 99.67,108.12 98.37,106.47 	"/>
	<path d="M101.55,106.39c-0.6,0.04-1.53,0.07-1.53,0.07l0.01,0.36c0,0,0.94-0.04,1.54-0.07c0.08-0.01,0.19,0,0.23,0.05
		c0.08,0.08,0.04,0.35,0.01,0.58l-0.02,0.13c-0.02,0.17-0.67,0.36-1.41,0.42v-0.68h-0.36v1.06l0.19-0.01
		c0.44-0.02,1.87-0.14,1.95-0.75l0.02-0.12c0.04-0.34,0.09-0.67-0.11-0.88C101.96,106.43,101.78,106.38,101.55,106.39z"/>
	<polygon points="103.19,107.15 104.3,107.15 104.3,106.78 103.18,106.78 103.16,106.42 104.37,106.38 104.36,106.02 102.78,106.06 
		102.86,107.91 104.36,107.91 104.36,107.54 103.21,107.54 	"/>
</g>
<g>
	<path d="M11.48,88.22c-0.82,0-4.89-0.15-7.6-3.12c-1.15-1.26-2.46-3.48-2.15-6.84c0.61-6.68,7.66-15.85,16.87-18.62l14.34-25.59
		l35.62-2.92l-1.19,1.18l0.77,1.8l4.19-3.34l11.7-0.62l0.46-0.43l14.52-0.85c0.12-0.01,0.33-0.02,0.59-0.02
		c1.01,0,2.74,0.16,4.43,1.1l0.85-1.74l30.86-2.6l6.73-0.62c0.14-0.01,0.6-0.05,1.27-0.05c2.2,0,5.14,0.36,7.43,1.96l2.97-3.01
		l34.08-2.4l-16.36,16.56l-4.49,0.17l-2.95,7.17l0.87,0.78c0.87-0.24,1.77-0.41,2.69-0.5c7.26-0.75,15.65-1.21,16-1.23l12.49-0.68
		l-12.36,12.77c0.77,1.36,1.06,2.96,0.82,4.62c-0.39,2.76-1.74,5.78-3.6,8.08c-2.73,3.37-6.46,5.3-10.8,5.6
		c-4.36,0.3-10.09,0.66-13.6,0.88l-0.08,0.44l-15.8,0.68c-1.32,0.76-2.73,1.19-4.21,1.29c-0.19,0.01-0.39,0.02-0.58,0.02
		c-2.17,0-4.09-0.84-5.37-2.32l-0.4,0.04l-1.7,2.54l-14.43,0.89c-1.74,0.44-3.59,0.71-5.51,0.83c-1.54,0.09-2.75,0.13-3.79,0.13
		c-3.21,0-5.44-0.43-7.24-1.39c-0.05-0.03-0.09-0.05-0.14-0.08l-6.04,0.41l-1.36,2.75l-16.74,0.73l0.18-0.36
		c-1.73,0.71-3.62,1.15-5.58,1.32c-7.33,0.61-16.79,1.24-16.87,1.24l-5.66,0.37c-1.83,0.59-3.73,0.89-5.64,0.89h-6.95l-0.39-0.06
		c-0.59-0.09-2.57-0.49-4.42-1.76l-0.84,0l-3.88,3.34l-11.95,0.56H11.48z"/>
	<path class="st4" d="M184.95,23.02l-6.77,6.86l-5.85,5.92l-1.01,1.02l-1.44,0.05L166.51,37l-3.39,8.26l0.06,0.75l1.8,1.61
		c0.99-0.32,2.04-0.55,3.13-0.66c7.21-0.75,15.58-1.21,15.94-1.23l9.25-0.5l-6.44,6.66l-4.38,4.53c1.02,1.25,1.44,2.87,1.19,4.58
		c-0.36,2.55-1.61,5.33-3.33,7.46c-2.5,3.09-5.92,4.86-9.89,5.13c-4.79,0.33-11.24,0.73-14.58,0.94l-0.08,0.42l-2.87,0.12
		l-5.51,0.24l-4.78,0.21l0.46-1.96c-0.94,1.03-3.03,3.11-6.33,3.32c-0.17,0.01-0.33,0.02-0.5,0.02c-2.25,0-3.88-1.02-4.79-2.38
		l-1.7,0.17l-0.69,1.02l-1,1.49l-1.8,0.11l-5.37,0.33l-6.75,0.42c-1.62,0.42-3.41,0.7-5.38,0.82c-1.52,0.09-2.7,0.13-3.71,0.13
		c-2.99,0-5.04-0.38-6.64-1.24c-0.14-0.08-0.28-0.16-0.43-0.25l-7.17,0.49l-0.4,0.81l-0.95,1.92l-2.14,0.09l-5.47,0.24l-6.21,0.27
		l1.09-2.15c-2.4,1.8-5.37,2.92-8.71,3.2c-7.36,0.61-16.75,1.23-16.84,1.24L45.38,84c-1.62,0.54-3.42,0.87-5.4,0.87h-6.56h-0.29
		l-0.29-0.05c-0.5-0.08-2.49-0.47-4.21-1.78l-1.72,0l-2.95,2.55l-0.95,0.82l-1.25,0.06l-10.12,0.48l-0.07,0l-0.07,0l-0.02,0h-0.01
		c-0.7,0-4.28-0.13-6.64-2.71c-0.98-1.07-2.09-2.96-1.83-5.87c0.54-5.91,7.1-15.11,16.46-17.65l2.29-4.09l11.03-19.68l0.95-1.69
		l1.93-0.16l19.68-1.62l9.87-0.81l0.92-0.08l0.05,0.12l1.03,2.39l0.45,1.04l4.26-3.4l0.91-0.73l1.16-0.06l7.22-0.38l3.36-0.18
		l0.47-0.43l1.31-0.08l12.76-0.75c0.12-0.01,0.29-0.02,0.52-0.02c1.15,0,3.22,0.24,4.92,1.72l0.28-0.57l0.91-1.85l2.05-0.17
		l19.46-1.64l8.63-0.73l6.74-0.62l0.02,0l0.02,0c0.08-0.01,0.49-0.04,1.11-0.04c2.34,0,5.47,0.43,7.52,2.41l2.48-2.52l0.96-0.98
		l1.37-0.1l19.25-1.35L184.95,23.02 M191.5,20.01l-6.73,0.47l-9.61,0.68l-19.25,1.35l-1.37,0.1l-0.96,0.07l-0.67,0.68l-0.96,0.98
		l-0.96,0.97c-1.94-1.07-4.4-1.62-7.24-1.62c-0.69,0-1.18,0.04-1.31,0.05l-0.01,0l-0.05,0l-6.74,0.63l-8.61,0.73l-19.46,1.64
		l-2.05,0.17l-1.44,0.12l-0.62,1.27c-1.51-0.58-2.93-0.7-3.84-0.7c-0.31,0-0.55,0.01-0.71,0.02l-12.72,0.74l-1.31,0.08l-0.92,0.05
		l-0.46,0.43l-2.44,0.13l-7.22,0.38l-1.16,0.06l-0.81,0.04l-0.08,0.06l-6.79,0.56l-9.87,0.81l-19.68,1.62l-1.93,0.16l-1.35,0.11
		l-0.66,1.18l-0.95,1.69L19.52,55.39l-1.79,3.19C8.15,61.69,1.11,71.02,0.46,78.14c-0.35,3.83,1.15,6.36,2.48,7.82
		c3,3.28,7.27,3.54,8.52,3.54l0.12,0l0.05,0l0.05,0l0.07,0l10.12-0.48l1.25-0.06L24,88.91l0.66-0.57l0.95-0.82l2.23-1.93
		c1.96,1.24,3.96,1.64,4.59,1.74l0.29,0.05l0.2,0.03h0.2h0.29h6.56c1.99,0,3.97-0.3,5.88-0.9l5.51-0.36
		c0.09-0.01,9.54-0.63,16.88-1.24c1.6-0.13,3.15-0.44,4.62-0.92l2.9-0.13l6.21-0.27l5.47-0.24l2.14-0.09l1.5-0.07l0.67-1.34
		l0.71-1.42l4.95-0.34c1.95,1,4.33,1.44,7.65,1.44c1.06,0,2.29-0.04,3.86-0.13c1.96-0.11,3.85-0.39,5.63-0.83l6.52-0.4l5.37-0.33
		l1.8-0.11l1.26-0.08l0.7-1.05l0.68-1.01c1.45,1.19,3.32,1.84,5.39,1.84c0.21,0,0.44-0.01,0.66-0.02c1.59-0.1,3.09-0.53,4.5-1.3
		l1.33-0.06l4.78-0.21l5.51-0.24l2.87-0.12l2.01-0.09l0.09-0.46c3.56-0.22,8.66-0.54,12.63-0.82c4.7-0.32,8.75-2.42,11.7-6.07
		c2-2.47,3.45-5.72,3.87-8.7c0.23-1.6,0.04-3.16-0.55-4.56l3.04-3.15l6.44-6.66l4.51-4.66l-6.47,0.35l-9.25,0.5
		c-0.36,0.02-8.8,0.48-16.06,1.24c-0.59,0.06-1.18,0.15-1.75,0.27l2.14-5.21l1.73-0.06l1.44-0.05l1.01-0.04l0.71-0.72l1.01-1.02
		l5.85-5.92l6.77-6.86L191.5,20.01L191.5,20.01z"/>
</g>
<polygon class="st5" points="35.94,38.73 24.91,58.41 41.83,57.36 48.11,51.85 33.56,52.8 34.89,50.23 45.64,49.47 50.67,44.81 
	37.79,45.57 38.89,43.58 49.91,42.82 55.62,37.11 "/>
<polygon class="st5" points="56.38,37.11 60.28,46.05 45.45,56.79 52.86,56.41 61.7,49.56 64.27,55.36 72.16,54.89 67.79,45.38 
	81.38,35.21 74.15,35.59 66.17,41.96 63.84,36.54 "/>
<path class="st5" d="M80.8,39.87l5.74-5.35l12.8-0.75c0,0,4.14-0.39,3.81,3.85c-0.27,3.55-2.41,9.55-13.93,11.06
	c-1.43,0.19-4.83,0.3-7.84,0.42l-2.76,5.31l-5.45,0.18l5.42-10.16l6.35-0.25c0,0,8.95-0.32,10.45-1.56c1.5-1.25,2.32-3.67,0.53-3.74
	C94.13,38.8,80.8,39.87,80.8,39.87z"/>
<path class="st5" d="M108.07,32.88l-9.91,20.18l17.18-1.43c0,0,6.27-5.78,5.92-5.63c-0.36,0.14-14.76,1-14.76,1l1.21-2.35
	l10.41-0.86l5.13-4.92l-13.33,1l1.21-2.14l10.62-0.62l5.78-5.87L108.07,32.88z"/>
<path class="st5" d="M126.82,36.23l5.35-5.35l10.77-1c0,0,7.27-0.59,6.56,3.88c-0.71,4.47-3.49,8.17-7.2,9.17l2.64,6.63h-7.63
	L135.8,45l-8.27,0.5l-2.07,5.2l-5.49,0.36l4.63-10.6l10.15-0.52c0,0,7.83,0.71,8.74-2.85c0.64-2.5-1.85-1.97-2.92-1.88
	C139.51,35.31,126.82,36.23,126.82,36.23z"/>
<polygon class="st5" points="150.78,34.31 156.34,28.67 175.59,27.32 169.74,33.24 164.04,33.45 157.98,48.21 152.42,48.71 
	158.48,33.76 "/>
<path class="st4" d="M36.22,62.64l-6.18,5.42c0,0-7.94,0.33-9.27,0.62c-1.33,0.29-7.38,2.78-7.89,7.37c-0.24,2.14,2.28,2.04,3.33,2
	c1.05-0.05,11.93-0.86,11.93-0.86l-6.56,5.66l-10.12,0.48c0,0-5.28,0.05-4.85-4.61c0.43-4.66,6.7-13.59,15.69-14.88
	C31.28,62.54,36.22,62.64,36.22,62.64z"/>
<path class="st4" d="M37.51,62.4l5.37-0.33L36.22,73.9c0,0-0.95,2.61,1.19,2.52c2.14-0.1,8.75,0.05,11.17-4.18
	c2.42-4.23,6.27-11.5,6.27-11.5l5.47-0.24l-7.65,13.55c0,0-4.56,7.19-12.69,7.19c-4.42,0-6.56,0-6.56,0s-4.8-0.77-3.61-4.48
	C31,73.05,37.51,62.4,37.51,62.4z"/>
<path class="st4" d="M84.28,58.41l-5.61,5.18c0,0-12.93,1.05-13.59,1.43c-0.67,0.38-2.19,2.19,0,2.14c2.19-0.05,9.89-0.62,9.89-0.62
	s4.99-0.24,4.04,3.09c-0.95,3.33-3.85,8.51-11.27,9.13c-7.41,0.62-16.78,1.24-16.78,1.24l6.32-5.42l13.78-1.14
	c0,0,2.52-0.95,2.42-2.14c-0.08-1-7.61-0.05-9.17,0c-1.57,0.05-6.35,0.33-6.17-1.9c0.18-2.23,3.03-9.08,10.02-9.84
	C75.15,58.79,84.28,58.41,84.28,58.41z"/>
<polygon class="st4" points="81.38,63.44 87.27,57.74 106.76,56.36 100.68,61.88 94.59,62.26 87.18,77.18 81.71,77.42 89.13,62.78 
	"/>
<path class="st4" d="M120.88,54.94h-2.71c-0.62,0-8.18,0.43-12.45,3.8c-4.28,3.37-7.51,8.6-7.37,12.6c0.14,3.99,3.71,4.28,10.22,3.9
	c16.3-0.95,17.78-14.92,17.78-14.92c0-0.12,0-0.59,0-2.14C126.34,55.51,120.88,54.94,120.88,54.94z M120.4,62.92
	c-0.19,1.66-1.43,6.84-9.46,7.32c-8.03,0.48-6.56-2.61-6.56-2.61s2.37-7.62,10.46-7.62C120.93,60.01,120.59,61.26,120.4,62.92z"/>
<path class="st4" d="M120.69,74l5.37-0.33l8.18-12.22v10.27c0,0,0.03,1.66,2.3,1.52c2.27-0.14,3.64-1.9,4.22-2.52
	c0.57-0.62,9.22-10.71,9.22-10.71l-2.71,11.66l5.51-0.24l3.42-17.68c0,0,0.48-2.23-1.71-2.19c-2.19,0.05-3.04,1.38-3.71,2.04
	c-0.67,0.67-11.07,12.36-11.07,12.36l0.1-11.37c0,0,0.15-1.53-2.14-1.53C134.38,53.06,124.3,69.15,120.69,74z"/>
<path class="st4" d="M184.25,49.35l-5.28,5.45c0,0-11.98,0.46-13.37,1.28c-1.39,0.82-0.96,2.5-0.57,2.5s9.55-1.03,10.55-1.07
	c1-0.04,4.92-0.04,4.49,2.96c-0.43,2.99-3.1,9.02-9.87,9.48s-16.75,1.07-16.75,1.07l5.31-5.42c0,0,13.12-0.64,14.22-1.21
	c1.11-0.57,1.39-1.34,1.43-1.62c0.04-0.27,0.25-1.16-1.57-1.02c-1.82,0.14-13.3,2.1-13.62-0.93c-0.32-3.03,2.07-9.52,9.27-10.27
	C175.69,49.81,184.25,49.35,184.25,49.35z"/>
<g>
	<path d="M15.82,22.54c0.39-0.09,0.72-0.25,0.97-0.51c0.25-0.25,0.44-0.53,0.56-0.83c-0.11,0.04-0.22,0.08-0.35,0.13
		c-0.13,0.04-0.32,0.1-0.57,0.17c-0.25,0.07-0.59,0.16-1.02,0.26c-0.43,0.1-1,0.23-1.72,0.39c-0.6,0.13-1.09,0.12-1.49-0.04
		c-0.39-0.15-0.64-0.46-0.74-0.9s-0.06-0.84,0.1-1.17c0.16-0.34,0.41-0.63,0.75-0.88c0.34-0.25,0.74-0.46,1.2-0.63
		c0.47-0.17,0.96-0.31,1.47-0.42c1.2-0.26,2.15-0.27,2.84-0.01c0.69,0.26,1.12,0.79,1.3,1.6c0.12,0.54,0.12,1.05,0,1.53
		c-0.12,0.48-0.33,0.91-0.63,1.3c-0.3,0.38-0.69,0.71-1.15,0.99c-0.46,0.27-0.97,0.47-1.53,0.6l-3.66,0.8l1.1-1.8L15.82,22.54z
		 M13.76,20.92c0.44-0.1,0.83-0.18,1.15-0.26s0.6-0.14,0.83-0.19c0.23-0.05,0.43-0.1,0.58-0.14c0.15-0.04,0.29-0.07,0.4-0.1
		c0.11-0.03,0.21-0.06,0.29-0.09s0.17-0.06,0.25-0.09c-0.05-0.18-0.14-0.32-0.26-0.41c-0.12-0.09-0.28-0.14-0.48-0.16
		c-0.19-0.02-0.43-0.01-0.7,0.03c-0.27,0.04-0.57,0.1-0.91,0.17c-0.41,0.09-0.74,0.18-0.99,0.26c-0.25,0.08-0.44,0.16-0.56,0.25
		c-0.13,0.08-0.21,0.17-0.24,0.25c-0.03,0.08-0.04,0.17-0.02,0.26C13.18,20.93,13.39,21,13.76,20.92z"/>
	<path d="M20.68,16.96l2.13-0.47l0.24,6.03l-1.8,0.39l-0.19-4.46l-1.41,0.31L20.68,16.96z"/>
	<path d="M26.38,21.79c-0.39,0.09-0.73,0.12-1.02,0.11c-0.28-0.01-0.52-0.06-0.71-0.15c-0.19-0.09-0.34-0.21-0.44-0.36
		c-0.11-0.15-0.18-0.33-0.22-0.52c-0.05-0.23-0.06-0.44-0.04-0.63c0.02-0.19,0.08-0.37,0.16-0.53c0.08-0.16,0.18-0.3,0.3-0.42
		c0.12-0.12,0.25-0.22,0.4-0.29c-0.18-0.03-0.34-0.11-0.5-0.24c-0.16-0.14-0.26-0.34-0.32-0.6c-0.07-0.3-0.06-0.58,0.01-0.83
		c0.07-0.26,0.21-0.49,0.4-0.69c0.19-0.21,0.44-0.38,0.74-0.53c0.3-0.15,0.65-0.26,1.03-0.35l2.75-0.6
		c0.63-0.14,1.15-0.13,1.56,0.02c0.41,0.15,0.66,0.45,0.76,0.9c0.05,0.21,0.06,0.4,0.03,0.58c-0.03,0.17-0.07,0.33-0.15,0.48
		c-0.07,0.14-0.16,0.27-0.26,0.37c-0.1,0.1-0.22,0.19-0.33,0.26c0.22,0.02,0.41,0.1,0.59,0.25c0.18,0.15,0.29,0.37,0.36,0.65
		c0.05,0.24,0.07,0.48,0.04,0.72c-0.02,0.24-0.11,0.48-0.27,0.7c-0.16,0.23-0.4,0.43-0.72,0.62c-0.33,0.19-0.76,0.34-1.31,0.46
		L26.38,21.79z M26.17,17.33c-0.14,0.03-0.27,0.09-0.38,0.18c-0.11,0.09-0.14,0.21-0.11,0.38c0.03,0.13,0.09,0.2,0.19,0.23
		c0.1,0.03,0.21,0.03,0.32,0l2.9-0.64c0.15-0.03,0.28-0.09,0.38-0.19c0.1-0.09,0.14-0.23,0.1-0.4c-0.03-0.12-0.09-0.18-0.19-0.21
		c-0.1-0.02-0.21-0.02-0.32,0L26.17,17.33z M26.28,19.41c-0.22,0.05-0.37,0.12-0.46,0.23c-0.08,0.1-0.11,0.23-0.08,0.38
		c0.05,0.22,0.24,0.29,0.57,0.22l2.85-0.62c0.22-0.05,0.37-0.12,0.46-0.23c0.09-0.1,0.11-0.23,0.08-0.38
		c-0.05-0.22-0.24-0.29-0.58-0.22L26.28,19.41z"/>
	<path d="M32.35,19.84c-0.03-0.15-0.03-0.29,0.01-0.43c0.04-0.14,0.1-0.26,0.18-0.36c0.09-0.11,0.19-0.2,0.32-0.27
		c0.13-0.08,0.26-0.13,0.41-0.16c0.24-0.05,0.46-0.04,0.65,0.06c0.19,0.09,0.31,0.25,0.36,0.48c0.03,0.15,0.03,0.29-0.01,0.43
		c-0.04,0.14-0.1,0.25-0.19,0.36c-0.09,0.1-0.19,0.19-0.32,0.27c-0.13,0.07-0.27,0.13-0.42,0.16c-0.24,0.05-0.46,0.03-0.64-0.05
		C32.52,20.22,32.4,20.06,32.35,19.84z"/>
	<path d="M39.15,17.42c0.39-0.09,0.72-0.25,0.97-0.51c0.25-0.25,0.44-0.53,0.56-0.83c-0.11,0.04-0.22,0.08-0.35,0.13
		c-0.13,0.04-0.32,0.1-0.57,0.17c-0.25,0.07-0.59,0.16-1.03,0.26c-0.43,0.1-1,0.23-1.72,0.39c-0.6,0.13-1.09,0.12-1.49-0.04
		c-0.4-0.15-0.64-0.46-0.74-0.9s-0.06-0.84,0.1-1.17c0.16-0.34,0.41-0.63,0.75-0.88c0.34-0.25,0.74-0.46,1.2-0.63
		c0.47-0.17,0.96-0.31,1.47-0.42c1.2-0.26,2.15-0.27,2.84-0.01c0.69,0.26,1.12,0.79,1.3,1.6c0.12,0.54,0.12,1.05,0,1.53
		c-0.12,0.48-0.33,0.91-0.63,1.3c-0.3,0.38-0.69,0.71-1.15,0.99s-0.97,0.47-1.53,0.6l-3.66,0.8l1.1-1.8L39.15,17.42z M37.09,15.8
		c0.45-0.1,0.83-0.18,1.15-0.26c0.32-0.07,0.6-0.14,0.83-0.19c0.23-0.05,0.43-0.1,0.58-0.14c0.16-0.04,0.29-0.07,0.41-0.1
		c0.11-0.03,0.21-0.06,0.29-0.09c0.08-0.03,0.17-0.06,0.25-0.09c-0.05-0.18-0.14-0.32-0.26-0.41c-0.12-0.09-0.28-0.14-0.48-0.16
		c-0.19-0.02-0.43-0.01-0.7,0.03c-0.27,0.04-0.57,0.1-0.91,0.17c-0.41,0.09-0.74,0.18-0.99,0.26c-0.25,0.08-0.44,0.16-0.56,0.25
		c-0.13,0.08-0.21,0.17-0.24,0.25c-0.03,0.08-0.04,0.17-0.02,0.26C36.5,15.81,36.72,15.88,37.09,15.8z"/>
	<path d="M44.21,16.31l3.97-0.87c0.22-0.05,0.37-0.12,0.46-0.23c0.09-0.1,0.11-0.23,0.08-0.38c-0.05-0.22-0.24-0.29-0.58-0.22
		l-3.48,0.76l0.88-1.49l2.58-0.56c0.15-0.03,0.28-0.09,0.38-0.19c0.1-0.09,0.13-0.23,0.1-0.4c-0.03-0.12-0.09-0.18-0.19-0.21
		c-0.1-0.02-0.21-0.02-0.32,0l-4.86,1.07l1.09-1.82l3.64-0.8c0.63-0.14,1.15-0.13,1.55,0.02c0.41,0.15,0.66,0.45,0.76,0.9
		c0.05,0.21,0.06,0.4,0.03,0.58c-0.03,0.17-0.07,0.33-0.15,0.48c-0.07,0.14-0.16,0.27-0.26,0.37s-0.22,0.19-0.33,0.26
		c0.22,0.02,0.42,0.1,0.6,0.25c0.17,0.15,0.29,0.37,0.36,0.65c0.05,0.24,0.07,0.48,0.04,0.72c-0.02,0.24-0.11,0.48-0.27,0.71
		c-0.16,0.23-0.4,0.43-0.72,0.62c-0.32,0.19-0.76,0.34-1.32,0.47l-5.11,1.12L44.21,16.31z"/>
	<path d="M52.6,9.96L56,9.21c0.78-0.17,1.37-0.16,1.77,0.04c0.41,0.2,0.66,0.52,0.76,0.98c0.06,0.29,0.07,0.56,0.02,0.83
		c-0.05,0.26-0.16,0.5-0.32,0.72c-0.17,0.22-0.4,0.41-0.69,0.58c-0.29,0.17-0.65,0.3-1.08,0.39l-2.76,0.6
		c-0.21,0.05-0.36,0.11-0.46,0.2c-0.1,0.09-0.14,0.21-0.13,0.37l0.02,0.44l5.6-1.23l-1.1,1.8l-6.18,1.35l-0.08-1.97
		c-0.02-0.55,0.15-1.01,0.5-1.36c0.35-0.35,0.89-0.61,1.61-0.77l2.76-0.61c0.24-0.05,0.41-0.13,0.5-0.22
		c0.09-0.1,0.12-0.23,0.08-0.4c-0.03-0.12-0.09-0.2-0.19-0.23c-0.1-0.03-0.25-0.02-0.43,0.02l-4.69,1.03L52.6,9.96z"/>
	<path d="M59.56,13.88c-0.03-0.15-0.03-0.29,0.01-0.43c0.04-0.14,0.1-0.26,0.18-0.36c0.09-0.11,0.19-0.2,0.32-0.27
		c0.13-0.08,0.26-0.13,0.41-0.16c0.24-0.05,0.46-0.04,0.65,0.06c0.19,0.09,0.31,0.25,0.36,0.48c0.03,0.15,0.03,0.29-0.01,0.43
		c-0.04,0.14-0.1,0.26-0.19,0.36c-0.09,0.1-0.19,0.19-0.32,0.27s-0.27,0.13-0.42,0.16c-0.24,0.05-0.46,0.03-0.64-0.05
		C59.72,14.25,59.6,14.1,59.56,13.88z"/>
	<path d="M64.49,13.43c-0.39,0.09-0.73,0.12-1.02,0.11c-0.28-0.01-0.52-0.06-0.71-0.15c-0.19-0.09-0.34-0.21-0.44-0.36
		c-0.11-0.15-0.18-0.33-0.22-0.52c-0.05-0.23-0.06-0.44-0.04-0.63c0.02-0.19,0.08-0.37,0.16-0.53c0.08-0.16,0.18-0.3,0.3-0.42
		c0.12-0.12,0.25-0.22,0.4-0.29c-0.18-0.03-0.34-0.11-0.5-0.24c-0.16-0.14-0.26-0.34-0.32-0.6c-0.07-0.3-0.06-0.58,0.01-0.83
		c0.07-0.26,0.21-0.49,0.4-0.69c0.19-0.21,0.44-0.38,0.74-0.53c0.3-0.15,0.65-0.26,1.03-0.35l2.75-0.6
		c0.63-0.14,1.15-0.13,1.56,0.02c0.41,0.15,0.66,0.45,0.76,0.9c0.05,0.21,0.06,0.4,0.03,0.58c-0.03,0.17-0.07,0.33-0.15,0.48
		c-0.07,0.14-0.16,0.27-0.26,0.37c-0.1,0.1-0.21,0.19-0.33,0.26c0.22,0.02,0.41,0.1,0.59,0.25c0.17,0.15,0.29,0.37,0.36,0.65
		c0.05,0.24,0.07,0.48,0.04,0.72c-0.02,0.24-0.11,0.48-0.27,0.7c-0.16,0.23-0.4,0.43-0.72,0.62c-0.33,0.19-0.76,0.34-1.31,0.46
		L64.49,13.43z M64.27,8.98C64.13,9.01,64,9.07,63.89,9.16c-0.11,0.09-0.14,0.21-0.11,0.38c0.03,0.13,0.09,0.2,0.19,0.23
		c0.1,0.03,0.21,0.03,0.32,0l2.9-0.64c0.15-0.03,0.28-0.09,0.38-0.19c0.1-0.09,0.14-0.23,0.1-0.4c-0.03-0.12-0.09-0.18-0.19-0.21
		c-0.1-0.02-0.21-0.02-0.32,0L64.27,8.98z M64.38,11.05c-0.22,0.05-0.37,0.12-0.46,0.23c-0.08,0.1-0.11,0.23-0.08,0.38
		c0.05,0.22,0.24,0.29,0.57,0.22l2.85-0.62c0.22-0.05,0.37-0.12,0.46-0.23c0.09-0.1,0.11-0.23,0.08-0.38
		c-0.05-0.22-0.24-0.29-0.58-0.22L64.38,11.05z"/>
	<path d="M77.09,4.58l-1.1,1.82L72.37,7.2l0.04,0.84l2.82-0.62c0.63-0.14,1.13-0.13,1.51,0.02c0.37,0.15,0.61,0.45,0.7,0.88
		c0.07,0.31,0.08,0.61,0.03,0.9c-0.05,0.29-0.16,0.56-0.34,0.8c-0.18,0.24-0.44,0.46-0.78,0.64C76,10.85,75.58,11,75.06,11.11
		l-4.59,1.01l1.09-1.8l3.57-0.78c0.24-0.05,0.41-0.13,0.5-0.24c0.09-0.1,0.12-0.24,0.08-0.41c-0.05-0.23-0.26-0.31-0.62-0.23
		l-4.42,0.97l-0.14-3.61L77.09,4.58z"/>
	<path d="M81.56,5.18c-0.36,0.08-0.67,0.22-0.93,0.43c-0.26,0.21-0.46,0.46-0.58,0.75l3.67-0.8c0.6-0.13,1.09-0.12,1.48,0.04
		c0.39,0.16,0.64,0.46,0.73,0.9c0.1,0.45,0.06,0.83-0.1,1.17c-0.16,0.34-0.41,0.63-0.75,0.88s-0.74,0.46-1.21,0.63
		c-0.47,0.17-0.96,0.31-1.47,0.42c-1.19,0.26-2.12,0.26-2.82-0.01c-0.69-0.27-1.13-0.83-1.32-1.68c-0.11-0.52-0.11-1.02,0.01-1.48
		c0.12-0.47,0.33-0.89,0.64-1.27c0.31-0.38,0.69-0.7,1.14-0.97s0.96-0.47,1.52-0.59l3.75-0.82l-1.1,1.82L81.56,5.18z M80.1,7.56
		c0.06,0.19,0.15,0.33,0.28,0.43c0.13,0.1,0.29,0.16,0.48,0.19c0.19,0.03,0.42,0.02,0.68-0.01c0.26-0.03,0.56-0.09,0.91-0.16
		c0.41-0.09,0.74-0.18,0.99-0.26c0.25-0.08,0.44-0.17,0.56-0.25c0.13-0.08,0.21-0.17,0.24-0.25c0.03-0.08,0.04-0.17,0.01-0.26
		C84.21,6.77,84,6.71,83.63,6.79L80.1,7.56z"/>
	<path d="M90.06,3.32c-0.36,0.08-0.67,0.22-0.93,0.43c-0.26,0.21-0.46,0.46-0.58,0.75l3.67-0.8c0.6-0.13,1.09-0.12,1.48,0.04
		c0.39,0.16,0.64,0.46,0.73,0.9c0.1,0.45,0.06,0.84-0.1,1.17s-0.41,0.63-0.75,0.88c-0.34,0.25-0.74,0.46-1.21,0.63
		c-0.47,0.17-0.96,0.31-1.47,0.42C89.72,8,88.78,7.99,88.09,7.73c-0.69-0.27-1.13-0.83-1.32-1.68c-0.11-0.52-0.11-1.02,0.01-1.48
		c0.12-0.47,0.33-0.89,0.64-1.27c0.31-0.38,0.69-0.7,1.14-0.97c0.46-0.27,0.96-0.47,1.52-0.59l3.75-0.82l-1.1,1.82L90.06,3.32z
		 M88.6,5.7c0.06,0.19,0.15,0.33,0.28,0.43c0.13,0.1,0.29,0.16,0.48,0.19c0.19,0.03,0.42,0.02,0.68-0.01
		c0.26-0.03,0.56-0.09,0.91-0.16c0.41-0.09,0.74-0.18,0.99-0.26c0.25-0.08,0.44-0.17,0.56-0.25c0.13-0.08,0.21-0.17,0.24-0.25
		c0.03-0.08,0.04-0.17,0.02-0.26c-0.05-0.22-0.26-0.29-0.63-0.21L88.6,5.7z"/>
</g>
<g>
	<path d="M123.12,108.74l-0.7,2.16l-2.03,0.98l1.29,4.57l-1.76,0.85l-1.29-4.57l-2.67,1.29l0.7-2.16L123.12,108.74z"/>
	<path d="M132.09,108.36c0.52,1.87-0.39,3.37-2.75,4.51c-1.22,0.59-2.19,0.85-2.92,0.78c-0.73-0.07-1.26-0.44-1.59-1.12
		c-0.08-0.17-0.15-0.36-0.21-0.56l-0.98-3.48l1.76-0.85l0.97,3.49c0.04,0.13,0.08,0.24,0.13,0.33c0.07,0.15,0.16,0.26,0.28,0.33
		c0.11,0.07,0.26,0.1,0.44,0.09c0.18-0.01,0.41-0.06,0.68-0.16c0.27-0.1,0.6-0.24,0.99-0.43c0.34-0.17,0.62-0.32,0.83-0.48
		c0.22-0.15,0.38-0.31,0.49-0.48c0.11-0.17,0.17-0.34,0.18-0.52c0.01-0.18-0.01-0.38-0.07-0.59l-0.98-3.48l1.77-0.86L132.09,108.36z
		"/>
	<path d="M139.65,105.97l-0.7,2.14l-5.03,2.43l-1.74-6.18l1.75-0.85l1.29,4.59L139.65,105.97z"/>
	<path d="M144.97,100.98c0.62-0.3,1.14-0.42,1.57-0.35c0.42,0.06,0.74,0.31,0.95,0.73c0.15,0.31,0.23,0.61,0.26,0.92
		c0.02,0.31-0.03,0.61-0.16,0.91c-0.13,0.3-0.35,0.58-0.65,0.86c-0.3,0.28-0.71,0.54-1.21,0.78l-5.3,2.56l0.68-2.13l4.31-2.08
		c0.24-0.12,0.39-0.24,0.46-0.37c0.07-0.13,0.06-0.28-0.02-0.44c-0.11-0.23-0.34-0.25-0.7-0.08l-3.11,1.5
		c-0.65,0.31-1.18,0.42-1.6,0.31c-0.42-0.1-0.73-0.36-0.93-0.78c-0.14-0.29-0.22-0.58-0.24-0.88s0.04-0.59,0.18-0.88
		s0.35-0.58,0.66-0.85s0.7-0.53,1.2-0.77l4.94-2.39l-0.68,2.16l-3.95,1.91c-0.24,0.11-0.39,0.23-0.47,0.36
		c-0.07,0.12-0.07,0.27,0.01,0.44c0.1,0.22,0.34,0.24,0.7,0.06L144.97,100.98z"/>
	<path d="M150.99,102.29l0.62-2.11l1.42-0.69c0.18-0.08,0.35-0.17,0.54-0.26s0.34-0.16,0.49-0.21c-0.11-0.07-0.25-0.17-0.4-0.28
		c-0.16-0.12-0.3-0.23-0.43-0.33l-1.48-1.14l-1.51,5.39l-2.08,1.01l2.07-7.35c0.07-0.24,0.17-0.47,0.31-0.7
		c0.14-0.23,0.35-0.41,0.63-0.55c0.27-0.13,0.51-0.17,0.72-0.12s0.41,0.14,0.6,0.27l5.13,3.87L150.99,102.29z"/>
	<path d="M159.54,96.36l-0.13,2.88l-0.98,0.47l-0.69-2.48L159.54,96.36z"/>
	<path d="M166.38,87.72c1.24-0.6,2.26-0.85,3.06-0.76c0.8,0.09,1.41,0.55,1.8,1.38c0.56,1.17,0.59,2.23,0.09,3.18
		c-0.51,0.95-1.56,1.81-3.15,2.58c-1.24,0.6-2.26,0.85-3.06,0.75c-0.8-0.09-1.41-0.55-1.81-1.38c-0.56-1.17-0.59-2.23-0.08-3.17
		C163.74,89.35,164.79,88.49,166.38,87.72z M167.73,92.5c0.57-0.28,1.02-0.53,1.35-0.75c0.33-0.22,0.56-0.45,0.69-0.68
		c0.13-0.23,0.17-0.48,0.13-0.75c-0.05-0.27-0.16-0.58-0.33-0.95c-0.11-0.23-0.24-0.39-0.39-0.5c-0.15-0.1-0.34-0.16-0.56-0.15
		c-0.22,0-0.47,0.06-0.76,0.16c-0.29,0.11-0.63,0.25-1.02,0.44c-0.57,0.28-1.02,0.53-1.35,0.75c-0.33,0.22-0.56,0.45-0.69,0.68
		s-0.17,0.48-0.13,0.75s0.16,0.58,0.33,0.95c0.11,0.23,0.25,0.4,0.4,0.5s0.34,0.15,0.55,0.15s0.47-0.06,0.76-0.16
		S167.34,92.68,167.73,92.5z"/>
	<path d="M180.46,88.05l-2.66,1.29l-2.18-0.79c-0.37-0.13-0.66-0.24-0.86-0.32c-0.2-0.08-0.36-0.15-0.48-0.21l0.28,0.88l0.5,1.77
		l-1.77,0.85l-1.74-6.18l1.76-0.85l0.41,1.43c0.05,0.19,0.1,0.38,0.14,0.57c0.04,0.19,0.09,0.37,0.13,0.53
		c0.08-0.17,0.18-0.37,0.3-0.61c0.12-0.24,0.27-0.54,0.46-0.9l1.22-2.3l2.55-1.23l-1.67,2.82c-0.15,0.25-0.28,0.46-0.39,0.65
		c-0.11,0.19-0.21,0.35-0.3,0.49c-0.09,0.14-0.17,0.27-0.24,0.38c-0.07,0.11-0.14,0.22-0.22,0.33c0.2,0.04,0.44,0.1,0.72,0.18
		c0.28,0.07,0.66,0.18,1.12,0.33L180.46,88.05z"/>
</g>
</svg>
